<?xml version="1.0" encoding="UTF-8" standalone="no"?>
<svg
   version="1.1"
   width="67.474442"
   height="63.684189"
   viewBox="0 0 67.474439 63.684188"
   id="svg12"
   xmlns="http://www.w3.org/2000/svg"
   xmlns:svg="http://www.w3.org/2000/svg">
  <defs
     id="defs12" />
  <g
     transform="translate(-286.26277,-148.15789)"
     id="g12">
    <g
       data-paper-data="{&quot;isPaintingLayer&quot;:true}"
       fill-rule="nonzero"
       stroke-linejoin="miter"
       stroke-miterlimit="10"
       stroke-dasharray="none"
       stroke-dashoffset="0"
       style="mix-blend-mode:normal"
       id="g11">
      <path
         d="m 353.73721,189.72611 c 0,16.72038 -15.11949,22.11596 -33.73722,22.11596 -18.61773,0 -33.73722,-5.3363 -33.73722,-22.11596 0,-7.88585 2.2531,-16.83896 7.05576,-24.19119 l -3.97257,-13.28143 c -0.7708,-2.54956 1.77876,-4.86196 4.15045,-3.85399 l 13.10356,5.45488 c 3.85399,-1.71947 8.3009,-2.72744 13.40002,-2.72744 4.98054,0 9.42745,1.00797 13.28144,2.78673 l 13.22214,-5.51417 c 2.37168,-0.94867 4.92125,1.36372 4.15045,3.85399 l -4.03186,13.45931 c 4.80266,7.23364 7.11505,16.18675 7.11505,24.01331 z"
         fill="#ff7319"
         stroke="none"
         stroke-width="1"
         stroke-linecap="butt"
         id="path1" />
      <path
         d="m 346.38497,200.28011 c 0,8.77524 -11.85842,11.56197 -26.44428,11.56197 -14.58586,0 -26.44428,-2.78673 -26.44428,-11.56197 0,-8.77524 7.88585,-20.15932 26.44428,-20.15932 18.14339,-0.0593 26.44428,11.38409 26.44428,20.15932 z"
         fill="#ffffff"
         stroke="none"
         stroke-width="1"
         stroke-linecap="butt"
         id="path2" />
      <path
         d="m 317.03539,184.09337 c 0,-1.18584 1.30443,-1.5416 2.96461,-1.5416 1.66018,0 2.96461,0.35575 2.96461,1.5416 0,1.18584 -0.88938,2.66814 -2.96461,2.66814 -2.07523,0 -2.96461,-1.4823 -2.96461,-2.66814 z"
         fill="#945600"
         stroke="#000000"
         stroke-width="1.5"
         stroke-linecap="butt"
         id="path3" />
      <path
         d="m 330.02036,187.94735 c 0,2.78673 -2.2531,4.98054 -5.03983,4.98054 -2.78673,0 -5.03983,-2.2531 -5.03983,-4.98054 0,-0.11859 0,-0.11858 0,-0.11858 0,-0.17788 0,-0.29646 0,-0.29646 0,0 0,0.11859 0,0.29646 0,0 0,0 0,0.11858 0,2.78673 -2.2531,4.98054 -5.03983,4.98054 -2.78673,0 -5.03983,-2.2531 -5.03983,-4.98054"
         fill="none"
         stroke="#000000"
         stroke-width="2.5"
         stroke-linecap="round"
         id="path4" />
      <path
         d="m 311.28405,173.95441 c 0,-1.57182 1.27421,-2.84602 2.84602,-2.84602 1.57182,0 2.84602,1.2742 2.84602,2.84602 0,1.57182 -1.2742,2.84602 -2.84602,2.84602 -1.57182,0 -2.84602,-1.27421 -2.84602,-2.84602 z"
         fill="#000000"
         stroke="none"
         stroke-width="1"
         stroke-linecap="butt"
         id="path5" />
      <path
         d="m 322.9646,173.95441 c 0,-1.57182 1.27421,-2.84602 2.84602,-2.84602 1.57182,0 2.84602,1.2742 2.84602,2.84602 0,1.57182 -1.2742,2.84602 -2.84602,2.84602 -1.57182,0 -2.84602,-1.27421 -2.84602,-2.84602 z"
         fill="#000000"
         stroke="none"
         stroke-width="1"
         stroke-linecap="butt"
         id="path6" />
      <path
         d="m 299.36633,158.89421 c -1.89735,1.71947 -3.49824,3.26106 -4.92125,5.63275 l -3.55753,-12.33276 c -0.23717,-1.48231 1.12655,-2.72744 2.60886,-2.31239 l 11.79913,4.92125 c -2.66815,1.06726 -4.20974,2.49027 -5.92921,4.09116 z"
         fill="#77500c"
         stroke="none"
         stroke-width="1"
         stroke-linecap="butt"
         id="path7" />
      <path
         d="m 334.94161,154.80305 11.79913,-4.92125 c 1.48231,-0.41504 2.84602,0.83009 2.60885,2.31239 l -3.55753,12.33276 c -1.42301,-2.37168 -3.0239,-3.91328 -4.92125,-5.63275 -1.71947,-1.60089 -3.26106,-3.0239 -5.92921,-4.09116 z"
         fill="#77500c"
         stroke="none"
         stroke-width="1"
         stroke-linecap="butt"
         id="path8" />
      <path
         d="m 313.82713,181.78696 c 0,-3.40917 2.76367,-6.17284 6.17284,-6.17284 3.40917,0 6.17284,2.76367 6.17284,6.17284 0,3.40917 -2.76367,6.17284 -6.17284,6.17284 -3.40917,0 -6.17284,-2.76367 -6.17284,-6.17284 z"
         fill="#ff0000"
         stroke="none"
         stroke-width="0"
         stroke-linecap="butt"
         id="path9" />
      <path
         d="m 321.14424,178.91602 c 0,1.15142 -1.14676,2.08482 -2.56135,2.08482 -1.4146,0 -2.56135,-0.93341 -2.56135,-2.08482 0,-1.15142 1.14676,-2.08482 2.56135,-2.08482 1.4146,0 2.56135,0.93341 2.56135,2.08482 z"
         fill="#ff7373"
         stroke="none"
         stroke-width="0"
         stroke-linecap="butt"
         id="path10" />
      <path
         d="m 319.35725,177.84382 c 0,0.36187 -0.56004,0.65523 -1.25089,0.65523 -0.69085,0 -1.25089,-0.29336 -1.25089,-0.65523 0,-0.36187 0.56004,-0.65523 1.25089,-0.65523 0.69085,0 1.25089,0.29336 1.25089,0.65523 z"
         fill="#ffcdcd"
         stroke="none"
         stroke-width="0"
         stroke-linecap="butt"
         id="path11" />
    </g>
  </g>
</svg>
