<?xml version="1.0" encoding="UTF-8" standalone="no"?>
<svg
   id="Layer_1"
   data-name="Layer 1"
   viewBox="0 0 179.51785 145.99693"
   version="1.1"
   width="179.51785"
   height="145.99693"
   xmlns="http://www.w3.org/2000/svg"
   xmlns:svg="http://www.w3.org/2000/svg">
  <defs
     id="defs1">
    <style
       id="style1">
      .cls-1 {
        fill: #ffda67;
        stroke: #c9982c;
      }

      .cls-1, .cls-2 {
        stroke-miterlimit: 10;
      }

      .cls-1, .cls-3, .cls-4 {
        stroke-width: 3px;
      }

      .cls-2 {
        stroke: #665729;
        stroke-width: 4px;
      }

      .cls-2, .cls-3, .cls-4 {
        stroke-linecap: round;
      }

      .cls-2, .cls-4 {
        fill: none;
      }

      .cls-3 {
        fill: #54b956;
      }

      .cls-3, .cls-4 {
        stroke: #459945;
        stroke-linejoin: round;
      }

      .cls-5 {
        fill: #fad4e4;
      }

      .cls-5, .cls-6 {
        stroke-width: 0px;
      }

      .cls-6 {
        fill: #665729;
      }
    </style>
    <clipPath
       clipPathUnits="userSpaceOnUse"
       id="clipPath9">
      <rect
         style="fill:#000000;fill-opacity:1;stroke:none;stroke-width:3.1479"
         id="rect9"
         width="188.59998"
         height="221.91212"
         x="21.207874"
         y="-9.0782232"
         ry="4.7041211" />
    </clipPath>
  </defs>
  <g
     id="g9"
     clip-path="url(#clipPath9)"
     transform="translate(-30.29,-32.043072)">
    <path
       class="cls-1"
       d="m 39.26,161.04 c 4.28,0 7.75,3.46 7.75,7.75 0,4.29 3.46,7.75 7.75,7.75 h 14.36 c 4.28,0 7.75,-3.46 7.75,-7.75 0,-4.29 3.46,-7.75 7.75,-7.75 4.29,0 7.75,3.46 7.75,7.75 0,4.29 3.46,7.75 7.75,7.75 h 14.36 c 4.28,0 7.75,-3.46 7.75,-7.75 0,-4.29 3.46,-7.75 7.75,-7.75 h 118.05 c 7.52,0 13.6,-6.08 13.6,-13.6 v -50.3 c 0,-7.52 -6.08,-13.6 -13.6,-13.6 h -62 c -2.52,-2.32 -5.53,-4.75 -9.07,-7.09 -1.48,-0.98 -2.94,-1.85 -4.34,-2.64 -0.11,-8.19 -1.13,-14.83 -2.08,-19.46 -2.08,-10.18 -3.76,-17.86 -9.45,-20.21 -0.62,-0.26 -3.19,-1.25 -7.93,0 C 139.13,37.83 131.75,54.32 129.92,58.7 124.28,57.45 116.8,56.36 108.01,56.62 100.47,56.84 94,57.99 88.93,59.26 86.98,56.75 71.42,36.83 63.24,34.14 c -0.55,-0.18 -1.91,-0.63 -3.59,-0.38 -1.03,0.15 -5.08,1 -8.88,9.07 -6.59,13.99 -1.66,26.74 -8,32.35 -0.49,0.43 -2.19,1.83 -4.01,3.26 -2.87,2.24 -5.31,3.97 -6.97,5.1 0,0 0,69.76 0,69.76 0,4.28 3.46,7.75 7.75,7.75"
       id="path1" />
    <g
       id="g3">
      <path
         class="cls-5"
         d="m 52.78,70.39 c -2.44,-0.86 -1.99,-8.94 -0.43,-14.83 1.26,-4.76 2.42,-9.11 5.28,-9.83 4.89,-1.23 13.59,8.4 11.85,15.42 -0.07,0.28 -0.29,1.1 -0.84,2.04 -2.18,3.7 -5.85,2.9 -13.78,6.64 -1.06,0.5 -1.52,0.76 -2.08,0.56 z"
         id="path2" />
      <path
         class="cls-5"
         d="m 165.27,71.62 c 2.44,-0.86 1.99,-8.94 0.43,-14.83 -1.26,-4.76 -2.42,-9.11 -5.28,-9.83 -4.89,-1.23 -13.59,8.4 -11.85,15.42 0.07,0.28 0.29,1.1 0.84,2.04 2.18,3.7 5.85,2.9 13.78,6.64 1.06,0.5 1.52,0.76 2.08,0.56 z"
         id="path3" />
    </g>
    <g
       id="g7">
      <circle
         class="cls-6"
         cx="79.029999"
         cy="81.910004"
         r="6.8000002"
         id="circle3" />
      <circle
         class="cls-6"
         cx="127.39"
         cy="81.910004"
         r="6.8000002"
         id="circle4" />
      <path
         class="cls-2"
         d="m 93.94,81.87 c 0,2.34 1.73,4.24 3.86,4.24"
         id="path4" />
      <path
         class="cls-2"
         d="m 97.8,86.11 c 2.13,0 3.86,-1.9 3.86,-4.24"
         id="path5" />
      <path
         class="cls-2"
         d="m 101.66,81.87 c 0,2.34 1.73,4.24 3.86,4.24"
         id="path6" />
      <path
         class="cls-2"
         d="m 105.51,86.11 c 2.13,0 3.86,-1.9 3.86,-4.24"
         id="path7" />
    </g>
    <path
       class="cls-3"
       d="m 88.62,110.67 c 1.94,-0.54 4.78,-1.02 7.93,-0.28 4.88,1.14 6.44,4.23 10.48,4.63 1.93,0.19 4.75,-0.21 8.41,-3.02 v 16.76 c -3.65,2.82 -6.47,3.21 -8.41,3.02 -4.05,-0.4 -5.61,-3.49 -10.48,-4.63 -3.16,-0.74 -6,-0.26 -7.93,0.28"
       id="path8" />
    <line
       class="cls-4"
       x1="87.870003"
       y1="108.87"
       x2="87.870003"
       y2="139.38"
       id="line8" />
  </g>
</svg>
