<?xml version="1.0" encoding="UTF-8" standalone="no"?>
<svg
   version="1.1"
   width="59.939415"
   height="54.310116"
   viewBox="-10 -10 31.656771 26.600726"
   id="svg28"
   xmlns="http://www.w3.org/2000/svg"
   xmlns:svg="http://www.w3.org/2000/svg">
  <defs
     id="defs18">
    <linearGradient
       x1="224.88391"
       y1="165.554"
       x2="261.45242"
       y2="180.02299"
       gradientUnits="userSpaceOnUse"
       id="color-1">
      <stop
         offset="0.33347"
         stop-color="#f9a637"
         id="stop1" />
      <stop
         offset="1"
         stop-color="#ff7319"
         id="stop2" />
    </linearGradient>
    <linearGradient
       x1="224.88391"
       y1="165.554"
       x2="261.45242"
       y2="180.02299"
       gradientUnits="userSpaceOnUse"
       id="color-2">
      <stop
         offset="0.33347"
         stop-color="#f9a637"
         id="stop3" />
      <stop
         offset="1"
         stop-color="#ff7319"
         id="stop4" />
    </linearGradient>
    <linearGradient
       x1="224.88391"
       y1="165.554"
       x2="261.45242"
       y2="180.02299"
       gradientUnits="userSpaceOnUse"
       id="color-3">
      <stop
         offset="0.33347"
         stop-color="#f9a637"
         id="stop5" />
      <stop
         offset="1"
         stop-color="#ff7319"
         id="stop6" />
    </linearGradient>
    <linearGradient
       x1="224.88391"
       y1="165.554"
       x2="261.45242"
       y2="180.02299"
       gradientUnits="userSpaceOnUse"
       id="color-4">
      <stop
         offset="0.33347"
         stop-color="#f9a637"
         id="stop7" />
      <stop
         offset="1"
         stop-color="#ff7319"
         id="stop8" />
    </linearGradient>
    <linearGradient
       x1="224.88391"
       y1="165.554"
       x2="261.45242"
       y2="180.02299"
       gradientUnits="userSpaceOnUse"
       id="color-5">
      <stop
         offset="0.33347"
         stop-color="#f9a637"
         id="stop9" />
      <stop
         offset="1"
         stop-color="#ff7319"
         id="stop10" />
    </linearGradient>
    <linearGradient
       x1="224.88391"
       y1="165.554"
       x2="261.45242"
       y2="180.02299"
       gradientUnits="userSpaceOnUse"
       id="color-6">
      <stop
         offset="0.33347"
         stop-color="#f9a637"
         id="stop11" />
      <stop
         offset="1"
         stop-color="#ff7319"
         id="stop12" />
    </linearGradient>
    <linearGradient
       x1="224.88391"
       y1="165.554"
       x2="261.45242"
       y2="180.02299"
       gradientUnits="userSpaceOnUse"
       id="color-7">
      <stop
         offset="0.33347"
         stop-color="#f9a637"
         id="stop13" />
      <stop
         offset="1"
         stop-color="#ff7319"
         id="stop14" />
    </linearGradient>
    <linearGradient
       x1="224.88391"
       y1="165.554"
       x2="261.45242"
       y2="180.02299"
       gradientUnits="userSpaceOnUse"
       id="color-8">
      <stop
         offset="0.33347"
         stop-color="#f9a637"
         id="stop15" />
      <stop
         offset="1"
         stop-color="#ff7319"
         id="stop16" />
    </linearGradient>
    <linearGradient
       x1="224.88391"
       y1="165.554"
       x2="261.45242"
       y2="180.02299"
       gradientUnits="userSpaceOnUse"
       id="color-9">
      <stop
         offset="0.33347"
         stop-color="#f9a637"
         id="stop17" />
      <stop
         offset="1"
         stop-color="#ff7319"
         id="stop18" />
    </linearGradient>
  </defs>
  <g
     transform="translate(-234.17161,-177.47246)"
     id="g28">
    <g
       data-paper-data="{&quot;isPaintingLayer&quot;:true}"
       stroke="none"
       stroke-linecap="butt"
       stroke-linejoin="miter"
       stroke-miterlimit="10"
       stroke-dasharray="none"
       stroke-dashoffset="0"
       style="mix-blend-mode:normal"
       id="g27">
      <path
         d="m 253.1191,169.43725 c -0.9375,0.78927 -2.18586,1.84648 -3.5322,2.98696 -0.36377,0.30793 -0.73439,0.62196 -1.10828,0.93841 -2.77429,2.34903 -5.70427,4.8245 -6.97488,5.84651 -0.43665,0.35119 -0.97841,0.55061 -1.56377,0.52638 -0.57109,-0.0236 -1.0749,-0.25467 -1.47868,-0.57089 -1.37039,-1.07331 -4.42407,-3.58359 -7.26504,-5.92619 -0.58252,-0.48031 -1.15553,-0.95313 -1.70369,-1.40543 -0.97919,-0.80795 -1.87904,-1.55045 -2.6119,-2.15331 v 23.20317 c 0,0 0,3.3e-4 -1.35452,3.3e-4 l 1.35452,-3.3e-4 c 0,0.7481 -0.60645,1.35482 -1.35452,1.35482 -0.74808,0 -1.35453,-0.60639 -1.35453,-1.35449 h 1.35453 c -1.35452,0 -1.35453,0 -1.35453,0 v -25.47334 c 0,-0.29839 0.073,-1.10001 0.8444,-1.50806 0.80963,-0.42833 1.52732,0.0164 1.77449,0.20996 0.49079,0.38437 2.30283,1.87956 4.45626,3.65647 0.54127,0.44664 1.1041,0.91105 1.67293,1.38009 2.76982,2.28392 5.69581,4.68913 7.08828,5.78637 1.33003,-1.08085 4.07291,-3.39811 6.72005,-5.63952 0.37422,-0.31671 0.74647,-0.63202 1.11252,-0.94207 2.34293,-1.98459 4.43018,-3.75241 5.07673,-4.27242 0.26711,-0.21476 0.76998,-0.5495 1.39857,-0.52544 0.37781,0.0144 0.82517,0.16771 1.15106,0.5675 0.29976,0.36739 0.36148,0.77838 0.36148,1.05443 v 25.54864 c 0,0 0,3.2e-4 -1.35449,3.2e-4 l 1.35449,-3.2e-4 c 0,0.7481 -0.60671,1.35482 -1.35449,1.35482 -0.7481,0 -1.35482,-0.60671 -1.35482,-1.35449 h 1.35482 c -1.35482,0 -1.35482,0 -1.35482,0 z"
         fill="url(#color-1)"
         fill-rule="evenodd"
         stroke-width="1"
         id="path19"
         style="fill:url(#color-1)" />
      <path
         d="m 247.71355,174.38529 4.95134,-3.96107 v 4.16737"
         fill="url(#color-2)"
         fill-rule="nonzero"
         stroke-width="1"
         id="path20"
         style="fill:url(#color-2)" />
      <path
         d="m 227.30081,174.88836 v -4.16737 l 4.95134,3.96106"
         fill="url(#color-3)"
         fill-rule="nonzero"
         stroke-width="1"
         id="path21"
         style="fill:url(#color-3)" />
      <path
         d="m 243.29898,187.56483 c -0.18704,0 -0.33865,-0.68214 -0.33865,-1.52364 0,-0.84166 0.15161,-1.5239 0.33865,-1.5239 0.18702,0 0.33863,0.68224 0.33863,1.5239 0,0.8415 -0.15161,1.52364 -0.33863,1.52364 z"
         fill="url(#color-4)"
         fill-rule="nonzero"
         stroke-width="1"
         id="path22"
         style="fill:url(#color-4)" />
      <path
         d="m 237.54227,187.56483 c -0.18704,0 -0.33863,-0.68214 -0.33863,-1.52364 0,-0.84166 0.15158,-1.5239 0.33863,-1.5239 0.18702,0 0.33863,0.68224 0.33863,1.5239 0,0.8415 -0.15161,1.52364 -0.33863,1.52364 z"
         fill="url(#color-5)"
         fill-rule="nonzero"
         stroke-width="1"
         id="path23"
         style="fill:url(#color-5)" />
      <path
         d="m 244.10528,184.28267 c 0.0858,0.1633 0.14002,0.3496 0.17693,0.51564 0.0765,0.3445 0.11733,0.78343 0.11733,1.24287 0,0.45912 -0.0408,0.89831 -0.11733,1.24281 -0.0369,0.16589 -0.0911,0.35234 -0.17693,0.51561 -0.0425,0.081 -0.11197,0.19364 -0.22194,0.29486 -0.11409,0.10514 -0.3126,0.2325 -0.58435,0.2325 -0.27179,0 -0.47028,-0.12735 -0.58438,-0.2325 -0.10997,-0.10123 -0.17944,-0.21388 -0.22195,-0.29486 -0.0858,-0.16327 -0.14002,-0.34972 -0.17691,-0.51561 -0.0765,-0.3445 -0.11733,-0.7837 -0.11733,-1.24281 0,-0.45944 0.0408,-0.89837 0.11733,-1.24287 0.0369,-0.16605 0.0911,-0.35234 0.17691,-0.51564 0.0425,-0.0809 0.11198,-0.19364 0.22195,-0.2949 0.11409,-0.10505 0.31259,-0.2324 0.58438,-0.2324 0.27175,0 0.47025,0.12735 0.58435,0.2324 0.10997,0.10126 0.17946,0.21401 0.22194,0.2949 z m -5.75672,0 c 0.0858,0.1633 0.14002,0.3496 0.17691,0.51564 0.0765,0.3445 0.11733,0.78343 0.11733,1.24287 0,0.45912 -0.0408,0.89831 -0.11733,1.24281 -0.0369,0.16589 -0.0911,0.35234 -0.17691,0.51561 -0.0425,0.081 -0.11194,0.19364 -0.22195,0.29486 -0.11406,0.10514 -0.31259,0.2325 -0.58434,0.2325 -0.27179,0 -0.47028,-0.12735 -0.58438,-0.2325 -0.10997,-0.10123 -0.17944,-0.21388 -0.22191,-0.29486 -0.0858,-0.16327 -0.14002,-0.34972 -0.17691,-0.51561 -0.0766,-0.3445 -0.11736,-0.7837 -0.11736,-1.24281 0,-0.45944 0.0408,-0.89837 0.11736,-1.24287 0.0369,-0.16605 0.0911,-0.35234 0.17691,-0.51564 0.0425,-0.0809 0.11194,-0.19364 0.22191,-0.2949 0.11409,-0.10505 0.31259,-0.2324 0.58438,-0.2324 0.27179,0 0.47028,0.12735 0.58434,0.2324 0.11001,0.10126 0.17946,0.21401 0.22195,0.2949 z"
         fill="url(#color-6)"
         fill-rule="evenodd"
         stroke-width="1"
         id="path24"
         style="fill:url(#color-6)" />
      <path
         d="m 240.41974,189.78955 c -0.0398,-0.12213 -0.0665,-0.25111 -0.0776,-0.38205 0,0 -0.008,-0.0993 0.0909,-0.10776 0.002,0 0.003,-3.2e-4 0.005,-3.2e-4 -0.0186,-0.0431 -0.0135,-0.0522 0.0276,-0.0578 0.004,-0.0294 0.0199,-0.081 0.0902,-0.0869 0.0992,-0.008 0.14727,0.0529 0.14727,0.0529 -0.1218,0.0271 -0.19703,0.0287 -0.23743,0.034 -0.001,0.0124 -7.9e-4,0.0209 -7.9e-4,0.0209 0.001,0.0131 0.002,0.0261 0.003,0.0389 -0.009,-0.002 -0.0187,-0.003 -0.0298,-0.002 0.0267,0.062 0.10253,0.19462 0.19008,0.48785 0.20448,0.56818 0.71728,0.96166 1.21025,0.37813 l 0.0485,-0.12506 c 0,0 0.0369,-0.0924 0.12944,-0.0555 0.0925,0.0369 0.0556,0.12964 0.0556,0.12964 l -0.0627,0.15347 c -0.55286,0.65438 -1.17391,0.35887 -1.48028,-0.22107 z"
         fill="url(#color-7)"
         fill-rule="nonzero"
         stroke-width="1"
         id="path25"
         style="fill:url(#color-7)" />
      <path
         d="m 240.3464,190.10042 c -0.30633,0.57994 -0.9274,0.87546 -1.48024,0.22107 l -0.0627,-0.15347 c 0,0 -0.0369,-0.0924 0.0556,-0.12964 0.0925,-0.0369 0.12944,0.0558 0.12944,0.0558 l 0.0485,0.12474 c 0.49294,0.58353 1.00575,0.19005 1.21023,-0.37813 0.0875,-0.29323 0.16334,-0.42581 0.19008,-0.48785 -0.0111,-6.5e-4 -0.0209,3.3e-4 -0.0298,0.002 8.5e-4,-0.0131 0.002,-0.0261 0.003,-0.0392 0,0 6.9e-4,-0.008 -7.5e-4,-0.0206 -0.0404,-0.006 -0.11566,-0.007 -0.23746,-0.0343 0,0 0.048,-0.0611 0.1473,-0.0526 0.0702,0.006 0.0866,0.0572 0.0902,0.0869 0.0412,0.005 0.0462,0.0144 0.0276,0.0575 0.002,0 0.003,3.3e-4 0.005,3.3e-4 0.0992,0.008 0.0909,0.10776 0.0909,0.10776 -0.011,0.13094 -0.0378,0.25993 -0.0776,0.38205 z"
         fill="url(#color-8)"
         fill-rule="nonzero"
         stroke-width="1"
         id="path26"
         style="fill:url(#color-8)" />
      <path
         d="m 240.49942,189.79412 c -0.21169,0.0382 -0.64883,-0.38924 -0.68704,-0.60084 -0.0382,-0.2116 0.38918,-0.23184 0.60083,-0.27004 0.21166,-0.0382 0.6488,-0.002 0.68701,0.20996 0.0382,0.2116 -0.38913,0.62271 -0.60081,0.66092 z"
         fill="url(#color-9)"
         fill-rule="nonzero"
         stroke-width="1"
         id="path27"
         style="fill:url(#color-9)" />
    </g>
  </g>
</svg>
