<?xml version="1.0" encoding="UTF-8" standalone="no"?>
<svg
   version="1.1"
   width="68.146797"
   height="71.397873"
   viewBox="0 0 68.146795 71.397872"
   id="svg7"
   xmlns="http://www.w3.org/2000/svg"
   xmlns:svg="http://www.w3.org/2000/svg">
  <defs
     id="defs7" />
  <g
     transform="translate(-285.92907,-145.86201)"
     id="g7">
    <g
       data-paper-data="{&quot;isPaintingLayer&quot;:true}"
       fill-rule="nonzero"
       stroke-linejoin="miter"
       stroke-miterlimit="10"
       stroke-dasharray="none"
       stroke-dashoffset="0"
       style="mix-blend-mode:normal"
       id="g6">
      <g
         stroke-width="0.898"
         stroke-linecap="round"
         id="g5">
        <g
           fill="#833116"
           stroke="#833116"
           id="g2">
          <path
             d="m 297.12805,173.07478 c 0,0 0.52393,-2.15425 4.98264,-6.73278 4.45644,-4.57627 9.28086,-6.15238 12.48038,-7.46801 3.19896,-1.31558 5.34715,-7.88902 5.34715,-7.88902 0,0 2.94543,3.67554 5.97367,7.01761 3.08967,3.40821 10.28425,6.39485 17.99374,14.17876 0.92007,0.93188 1.70205,1.90724 2.3595,2.90803 l 0.13295,0.11642 c 1.72232,1.49813 7.82844,7.47537 7.04589,16.17645 -0.59835,6.62876 -3.6035,8.72367 -5.05931,9.28765 l -0.0119,0.0486 c 0.75043,-1.49134 1.19726,-3.07367 1.4085,-4.67973 0.69521,-5.31262 -2.1578,-8.76602 -3.98772,-13.3864 -2.37243,-5.99247 -8.8622,-9.36399 -17.26583,-9.19615 -15.9931,0.31761 -19.51549,9.3363 -19.51549,9.3363 l -0.0118,0.11642 c 2.96739,5.52621 4.15166,17.78584 -1.92346,21.45458 -6.54329,3.94564 -16.23315,2.56847 -20.00617,-12.6795 -3.45418,-13.95435 6.88803,-18.35152 9.93097,-18.3154 l 0.12623,-0.29382 v 0 0 z m 49.1371,2.01461 c 0,0 4.19563,6.68703 2.82993,14.95011 m -52.09383,-16.6714 c 2.94204,0.0802 4.91394,2.19264 4.91394,2.19264 m 7.08529,7.34649 c -0.49527,-0.7748 -0.84059,-1.4128 -0.84059,-1.4128"
             id="path1" />
          <path
             d="m 306.55591,204.7229 v 0 0 l -0.0349,-0.0435 c 0.18702,-0.10119 0.37186,-0.20856 0.55437,-0.31761 6.08303,-3.67328 4.88577,-15.95996 1.91274,-21.47384 l 0.0242,-0.0972 c 0,0 3.52239,-9.01869 19.51887,-9.3363 8.40251,-0.16783 14.89165,3.20368 17.26414,9.19615 1.82993,4.62095 4.68519,8.07434 3.98772,13.3864 -0.7279,5.52854 -4.24915,10.80958 -13.32209,12.96319 -9.07288,2.16042 -8.70893,1.00362 -11.74903,2.31359 -3.0418,1.31841 -3.19783,1.89541 -3.19783,1.89541 0,0 0.97409,-1.91127 -2.9229,-2.88834 -5.88408,-1.46987 -11.30226,-5.0945 -12.03525,-5.59802 z"
             id="path2" />
        </g>
        <g
           fill="#f05a28"
           stroke="#f05a28"
           id="g4">
          <path
             d="m 297.2417,168.88055 c 0,0 0.52393,-2.15425 4.98264,-6.73278 4.45644,-4.57627 9.28086,-6.15238 12.48038,-7.46801 3.19896,-1.31558 5.34715,-7.88902 5.34715,-7.88902 0,0 2.94543,3.67554 5.97367,7.01761 3.08967,3.40821 10.28425,6.39485 17.99374,14.17876 0.92007,0.93188 1.70205,1.90724 2.3595,2.90803 l 0.13295,0.11642 c 1.72232,1.49813 7.82844,7.47537 7.04589,16.17645 -0.59835,6.62876 -3.6035,8.72367 -5.05931,9.28765 l -0.0119,0.0486 c 0.75043,-1.49134 1.19726,-3.07367 1.4085,-4.67973 0.69521,-5.31262 -2.1578,-8.76602 -3.98772,-13.3864 -2.37243,-5.99247 -8.8622,-9.36399 -17.26583,-9.19615 -15.9931,0.31761 -19.51549,9.3363 -19.51549,9.3363 l -0.0118,0.11642 c 2.96739,5.52621 4.15166,17.78584 -1.92346,21.45458 -6.54329,3.94564 -16.23315,2.56847 -20.00617,-12.6795 -3.45418,-13.95435 6.88803,-18.35152 9.93097,-18.3154 l 0.12623,-0.29382 v 0 0 z m 49.1371,2.0146 c 0,0 4.19563,6.68703 2.82993,14.95011 M 297.1149,169.17387 c 2.94204,0.0802 4.91394,2.19264 4.91394,2.19264 m 7.0853,7.34647 c -0.49527,-0.7748 -0.84059,-1.4128 -0.84059,-1.4128"
             id="path3" />
          <path
             d="m 306.66956,200.52867 v 0 0 l -0.0349,-0.0435 c 0.18702,-0.10119 0.37186,-0.20856 0.55437,-0.31761 6.08303,-3.67328 4.88577,-15.95996 1.91274,-21.47384 l 0.0242,-0.0972 c 0,0 3.52239,-9.01869 19.51887,-9.3363 8.40251,-0.16783 14.89165,3.20368 17.26414,9.19615 1.82993,4.62095 4.68519,8.07434 3.98772,13.3864 -0.7279,5.52854 -4.24915,10.80958 -13.32209,12.96319 -9.07288,2.16042 -8.70893,1.00362 -11.74903,2.31359 -3.0418,1.31841 -3.19783,1.89541 -3.19783,1.89541 0,0 0.97409,-1.91127 -2.9229,-2.88834 -5.88408,-1.46987 -11.30226,-5.0945 -12.03525,-5.59802 z"
             id="path4" />
        </g>
      </g>
    </g>
  </g>
</svg>
