<?xml version="1.0" encoding="UTF-8" standalone="no"?>
<svg
   version="1.1"
   width="49.775848"
   height="73.815628"
   viewBox="0 0 49.775847 73.815627"
   id="svg4"
   xmlns="http://www.w3.org/2000/svg"
   xmlns:svg="http://www.w3.org/2000/svg">
  <defs
     id="defs4" />
  <g
     transform="translate(-295.73256,-140.94672)"
     id="g4">
    <g
       data-paper-data="{&quot;isPaintingLayer&quot;:true}"
       fill-rule="nonzero"
       stroke-miterlimit="10"
       stroke-dasharray="none"
       stroke-dashoffset="0"
       style="mix-blend-mode:normal"
       id="g3">
      <g
         stroke-linecap="round"
         stroke-linejoin="round"
         id="g2">
        <path
           d="m 344.0088,198.6124 -0.26648,0.86815 c -1.47834,4.38524 -3.57989,6.90897 -3.57989,6.90897 0,0 0.0754,-0.78288 0.035,-2.04071 l -0.0655,-0.0257 c -0.18933,0.66223 -0.50027,1.51625 -1.01709,2.57123 -1.13337,2.31679 -4.46153,4.25904 -4.46153,4.25904 0,0 0.20688,-0.7965 0.3365,-2.09975 l -0.0466,-0.19938 c -0.36072,0.31247 -0.73491,0.59965 -1.11313,0.87926 -0.11129,0.0828 -0.22253,0.16355 -0.3356,0.24177 -0.34413,0.24081 -0.69454,0.47047 -1.05213,0.68498 -0.14129,0.0838 -0.28801,0.16153 -0.43115,0.24177 -0.2611,0.1469 -0.52584,0.28567 -0.79457,0.41995 -0.19742,0.0974 -0.39616,0.19433 -0.59855,0.28466 -0.20951,0.0949 -0.42487,0.1802 -0.63887,0.26907 -0.39347,0.15844 -0.79277,0.30635 -1.20109,0.44265 -0.13322,0.0444 -0.26648,0.0888 -0.40199,0.13019 -0.29115,0.0899 -0.5846,0.17767 -0.88337,0.25545 l 8.9e-4,0.001 c -1.49992,0.39321 -3.09129,0.64961 -4.7949,0.76769 -1.84309,0.12722 -3.51392,0.10652 -5.07433,-0.0156 v 0 c -1.23473,-0.0974 -2.39047,-0.26397 -3.48476,-0.48908 -0.0529,-0.0106 -0.10635,-0.0217 -0.15973,-0.0323 -0.3383,-0.0722 -0.67121,-0.14892 -0.99779,-0.23167 -0.11398,-0.0298 -0.22302,-0.0621 -0.3365,-0.0929 -0.43389,-0.11606 -0.85561,-0.24328 -1.27151,-0.37857 -0.2629,-0.0858 -0.52405,-0.17364 -0.77931,-0.26699 -0.15165,-0.054 -0.30377,-0.11056 -0.45228,-0.16759 -0.40558,-0.1575 -0.80757,-0.31746 -1.19745,-0.49009 l -0.0678,0.0732 c 0.14717,1.18568 0.51058,1.82367 0.8009,2.1275 0.59178,0.62034 1.73091,0.76774 1.73091,0.76774 0,0 -3.48207,0.54818 -5.37809,-2.4763 -0.20145,-0.3215 -0.40469,-0.65465 -0.5976,-1.0095 l -0.083,-0.20292 c -0.41186,-0.15492 -0.8291,-0.36086 -1.24101,-0.62588 -2.51157,-1.62782 -2.82699,-2.97042 -2.82699,-2.97042 l 0.0525,0.49211 c 0.24187,1.28262 0.47784,2.09218 0.47784,2.09218 0,0 -3.00601,-2.14012 -4.34485,-5.34726 -1.07944,-2.58889 -1.16516,-4.15711 -1.17233,-4.42063 l -0.10098,-0.94183 c -0.065,-3.6882 0.13865,-7.82513 0.58913,-11.89494 l 0.0278,-0.10849 c 0.40154,-3.14609 0.0121,-8.35817 3.72253,-13.69131 6.95291,-9.99104 14.05609,-9.64376 18.30447,-17.02769 3.12493,-5.43215 2.3223,-11.66226 2.3223,-11.66226 0,0 1.91626,3.05224 2.68078,4.84462 0.74029,1.74691 1.53081,3.99861 1.53081,3.99861 l 0.0256,-0.0192 c 0.0175,-0.0657 0.0332,-0.13277 0.0466,-0.19988 0.20867,-1.04534 0.1261,-2.5909 0.1261,-2.5909 0,0 1.82696,6.02367 4.77645,9.97282 2.9477,3.94719 7.20819,5.07528 12.58718,18.59294 0.66942,1.6798 1.2917,3.0936 1.62461,4.66088 l 0.15076,0.90197 c 0.46887,2.81854 0.28447,10.60526 -0.70082,13.96946 v 0 0 0 0 z m -34.45808,-13.23855 c 0,0 -3.48431,4.07177 -3.2546,9.73761 0.20324,5.01316 1.35812,6.5617 1.9804,6.94935 0.63982,0.39623 1.63178,0.16153 1.63178,0.16153 0,0 -2.80592,1.67173 -5.09322,-0.59663 -1.52992,-1.51625 -3.19491,-3.47218 -3.66109,-8.98904 m 37.39149,1.76609 c 0,0 0.43293,1.39413 -0.62232,4.30804 -1.18714,3.2829 -3.69203,4.29846 -3.69203,4.29846 0,0 2.08132,-5.05762 0.33471,-9.81286 -0.76227,-2.07754 -3.11506,-3.62507 -5.57102,-4.71785 -3.32816,-1.482 -6.84527,-2.12807 -6.84527,-2.12807 m 17.99761,17.91762 c -0.18754,0.67029 -0.50291,1.54501 -1.03502,2.62825 -1.13291,2.31679 -4.46107,4.25904 -4.46107,4.25904 0,0 0.60124,-2.32385 0.39621,-5.52348 m -33.18349,-8.93004 c -0.34189,0.71374 -0.60478,1.47891 -0.75195,2.28702 -0.92424,5.03844 0.70217,10.58817 0.70217,10.58817 0,0 -3.00512,-2.13916 -4.34485,-5.34732 -1.18758,-2.8473 -1.17233,-4.45999 -1.17233,-4.45999 m 47.44324,-0.28566 c -1.47924,4.38524 -3.58035,6.90897 -3.58035,6.90897 0,0 0.43389,-4.44782 -1.31636,-9.20357 -0.0789,-0.21503 -0.16826,-0.42399 -0.2629,-0.6269 m -16.43045,-10.2121 c 0,0 0.59587,0.17767 2.16794,1.58543 1.57213,1.40776 2.15045,2.94368 2.15045,2.94368 0,0 -4.64184,-1.37541 -7.21177,-2.41519 -2.56725,-1.04079 -11.23044,-3.69477 -11.23044,-3.69477 m -0.57519,22.51985 c 1.25846,2.22394 2.56769,3.43383 2.56769,3.43383 0,0 -3.07918,1.07257 -5.90802,-0.75916 -2.51157,-1.62777 -2.82699,-2.97042 -2.82699,-2.97042 m 33.65634,1.86353 c -3.31874,2.87253 -7.34459,4.28029 -12.2413,4.61945 -5.83795,0.4043 -10.10515,-0.55519 -13.75234,-2.16484 m -0.10366,-0.29381 c 0.11039,1.42239 0.51687,2.15985 0.83588,2.49295 0.59222,0.62034 1.73136,0.76774 1.73136,0.76774 0,0 -3.48296,0.54818 -5.37854,-2.4763 -0.20145,-0.3215 -0.40469,-0.65465 -0.5976,-1.0095 m 17.05314,-24.27387 c 0,0 12.71595,1.74495 12.71595,9.55287"
           fill="#510d14"
           stroke="#510d14"
           stroke-width="0.90025"
           id="path1" />
        <path
           d="m 344.09826,195.528 -0.26648,0.86815 c -1.47834,4.38524 -3.57989,6.90897 -3.57989,6.90897 0,0 0.0754,-0.78288 0.035,-2.04071 l -0.0655,-0.0257 c -0.18933,0.66223 -0.50027,1.51625 -1.01709,2.57123 -1.13337,2.31679 -4.46153,4.25904 -4.46153,4.25904 0,0 0.20688,-0.7965 0.3365,-2.09975 l -0.0466,-0.19938 c -0.36072,0.31247 -0.73491,0.59965 -1.11313,0.87926 -0.11129,0.0828 -0.22253,0.16355 -0.3356,0.24177 -0.34413,0.24081 -0.69454,0.47047 -1.05213,0.68498 -0.14129,0.0838 -0.28801,0.16153 -0.43115,0.24177 -0.2611,0.1469 -0.52584,0.28567 -0.79457,0.41995 -0.19742,0.0974 -0.39616,0.19433 -0.59855,0.28466 -0.20951,0.0949 -0.42487,0.1802 -0.63887,0.26907 -0.39347,0.15844 -0.79277,0.30635 -1.20109,0.44265 -0.13322,0.0444 -0.26648,0.0888 -0.40199,0.13019 -0.29115,0.0899 -0.5846,0.17767 -0.88337,0.25545 l 8.9e-4,0.001 c -1.49992,0.39321 -3.09129,0.64961 -4.7949,0.76769 -1.84309,0.12722 -3.51392,0.10652 -5.07433,-0.0156 v 0 c -1.23473,-0.0974 -2.39047,-0.26397 -3.48476,-0.48908 -0.0529,-0.0106 -0.10635,-0.0217 -0.15973,-0.0323 -0.3383,-0.0722 -0.67121,-0.14892 -0.99779,-0.23167 -0.11398,-0.0298 -0.22302,-0.0621 -0.3365,-0.0929 -0.43389,-0.11606 -0.85561,-0.24328 -1.27151,-0.37857 -0.2629,-0.0858 -0.52405,-0.17364 -0.77931,-0.26699 -0.15165,-0.054 -0.30377,-0.11056 -0.45228,-0.16759 -0.40558,-0.1575 -0.80757,-0.31746 -1.19745,-0.49009 l -0.0678,0.0732 c 0.14717,1.18568 0.51058,1.82367 0.8009,2.1275 0.59178,0.62034 1.73091,0.76774 1.73091,0.76774 0,0 -3.48207,0.54818 -5.37809,-2.4763 -0.20145,-0.3215 -0.40469,-0.65465 -0.5976,-1.0095 l -0.083,-0.20292 c -0.41186,-0.15492 -0.8291,-0.36086 -1.24101,-0.62588 -2.51157,-1.62782 -2.82699,-2.97042 -2.82699,-2.97042 l 0.0525,0.49211 c 0.24187,1.28262 0.47784,2.09218 0.47784,2.09218 0,0 -3.00601,-2.14012 -4.34485,-5.34726 -1.07944,-2.58889 -1.16516,-4.15711 -1.17233,-4.42063 l -0.10098,-0.94183 c -0.065,-3.6882 0.13865,-7.82513 0.58913,-11.89494 l 0.0278,-0.10849 c 0.40154,-3.14609 0.0121,-8.35817 3.72253,-13.69131 6.95291,-9.99104 14.05609,-9.64376 18.30447,-17.02769 3.12493,-5.43215 2.3223,-11.66226 2.3223,-11.66226 0,0 1.91626,3.05224 2.68078,4.84462 0.74029,1.74691 1.53081,3.99861 1.53081,3.99861 l 0.0256,-0.0192 c 0.0175,-0.0657 0.0332,-0.13277 0.0466,-0.19988 0.20867,-1.04534 0.1261,-2.5909 0.1261,-2.5909 0,0 1.82696,6.02367 4.77645,9.97282 2.9477,3.94719 7.20819,5.07528 12.58718,18.59294 0.66942,1.6798 1.2917,3.0936 1.62461,4.66088 l 0.15076,0.90197 c 0.46887,2.81854 0.28447,10.60526 -0.70082,13.96946 v 0 0 0 0 z m -34.45808,-13.23857 c 0,0 -3.48431,4.07177 -3.2546,9.73761 0.20324,5.01316 1.35812,6.5617 1.9804,6.94935 0.63982,0.39623 1.63178,0.16153 1.63178,0.16153 0,0 -2.80592,1.67173 -5.09322,-0.59663 -1.52992,-1.51625 -3.19491,-3.47218 -3.66109,-8.98904 m 37.3915,1.7661 c 0,0 0.43293,1.39413 -0.62232,4.30804 -1.18714,3.2829 -3.69203,4.29846 -3.69203,4.29846 0,0 2.08132,-5.05762 0.33471,-9.81286 -0.76227,-2.07754 -3.11506,-3.62507 -5.57102,-4.71785 -3.32816,-1.482 -6.84527,-2.12807 -6.84527,-2.12807 m 17.99761,17.91761 c -0.18754,0.67029 -0.50291,1.54501 -1.03502,2.62825 -1.13291,2.31679 -4.46107,4.25904 -4.46107,4.25904 0,0 0.60124,-2.32385 0.39621,-5.52348 m -33.18349,-8.93 c -0.34189,0.71374 -0.60478,1.47891 -0.75195,2.28702 -0.92424,5.03844 0.70217,10.58817 0.70217,10.58817 0,0 -3.00512,-2.13916 -4.34485,-5.34732 -1.18758,-2.8473 -1.17233,-4.45999 -1.17233,-4.45999 m 47.44325,-0.28568 c -1.47924,4.38524 -3.58035,6.90897 -3.58035,6.90897 0,0 0.43389,-4.44782 -1.31636,-9.20357 -0.0789,-0.21503 -0.16826,-0.42399 -0.2629,-0.6269 M 322.23947,183.2661 c 0,0 0.59587,0.17767 2.16794,1.58543 1.57213,1.40776 2.15045,2.94368 2.15045,2.94368 0,0 -4.64184,-1.37541 -7.21177,-2.41519 -2.56725,-1.04079 -11.23044,-3.69477 -11.23044,-3.69477 m -0.57518,22.51983 c 1.25846,2.22394 2.56769,3.43383 2.56769,3.43383 0,0 -3.07918,1.07257 -5.90802,-0.75916 -2.51157,-1.62777 -2.82699,-2.97042 -2.82699,-2.97042 m 33.65633,1.86353 c -3.31874,2.87253 -7.34459,4.28029 -12.2413,4.61945 -5.83795,0.4043 -10.10515,-0.55519 -13.75234,-2.16484 m -0.10365,-0.2938 c 0.11039,1.42239 0.51687,2.15985 0.83588,2.49295 0.59222,0.62034 1.73136,0.76774 1.73136,0.76774 0,0 -3.48296,0.54818 -5.37854,-2.4763 -0.20145,-0.3215 -0.40469,-0.65465 -0.5976,-1.0095 m 17.05314,-24.27386 c 0,0 12.71595,1.74495 12.71595,9.55287"
           fill="#be1e2d"
           stroke="#be1e2d"
           stroke-width="0.90024"
           id="path2" />
      </g>
    </g>
  </g>
</svg>
