<?xml version="1.0" encoding="UTF-8" standalone="no"?>
<svg
   version="1.1"
   width="69.179115"
   height="67.802658"
   viewBox="0 0 69.179113 67.802657"
   id="svg8"
   xmlns="http://www.w3.org/2000/svg"
   xmlns:svg="http://www.w3.org/2000/svg">
  <defs
     id="defs8" />
  <g
     transform="translate(-287.33265,-144.66699)"
     id="g8">
    <g
       data-paper-data="{&quot;isPaintingLayer&quot;:true}"
       fill-rule="nonzero"
       stroke-linejoin="miter"
       stroke-miterlimit="10"
       stroke-dasharray="none"
       stroke-dashoffset="0"
       style="mix-blend-mode:normal"
       id="g7">
      <g
         stroke="none"
         stroke-width="0"
         id="g6">
        <path
           d="m 355.92603,154.68322 c -0.65766,1.32451 -2.25725,2.84966 -3.38753,4.28267 -1.92002,2.46738 -3.37864,7.06633 -5.86885,8.16927 -1.30018,0.40542 -1.38004,-3.57875 -1.72051,-5.14971 -0.22753,-0.97342 -0.41099,-1.70883 0.24659,-3.03229 0.65766,-1.32459 1.83955,-2.85727 3.38753,-4.28267 1.54805,-1.4254 3.17288,-2.4771 4.54712,-3.02348 1.37311,-0.54638 2.49669,-0.58857 3.04224,0.004 0.54555,0.59249 0.41107,1.70876 -0.24659,3.03229 z"
           fill="#3d2949"
           stroke-linecap="round"
           id="path1" />
        <path
           d="m 288.05373,148.86326 c 0.54555,-0.59249 1.66913,-0.5503 3.04224,-0.004 1.37424,0.54638 2.99907,1.59808 4.54705,3.02348 1.54805,1.4254 2.72987,2.95808 3.38761,4.28267 0.65759,1.32346 0.73534,2.14883 0.24659,3.03229 -0.77482,1.39428 -1.9876,3.59894 -3.30096,3.02868 -2.37237,-0.89604 -2.88718,-4.05853 -4.2884,-6.04824 -1.04929,-1.48544 -2.72987,-2.95816 -3.38753,-4.28267 -0.65766,-1.32353 -0.79215,-2.4398 -0.24659,-3.03229 z"
           fill="#3d2949"
           stroke-linecap="butt"
           id="path2" />
        <path
           d="m 298.01282,206.05852 c -5.8357,-4.2227 -9.03984,-10.46856 -9.79786,-16.94037 -1.07287,-9.23679 0.4782,-18.34113 4.46078,-26.14242 2.89562,-5.01047 5.49334,-6.71705 9.34423,-8.26352 3.64513,-1.43489 7.39972,0.24569 13.99178,-0.3746 1.47007,-0.0267 2.93269,0.21819 4.41708,0.17781 1.41078,-0.0842 2.82171,-0.63227 4.24477,-0.55143 4.96188,0.28238 10.40919,-0.48716 15.15936,1.49629 3.69576,1.65692 7.31187,4.87878 8.75972,8.81246 2.61708,7.12488 3.5682,14.84345 2.40296,22.66983 -0.96325,6.44469 -3.0723,12.96148 -8.60166,17.57799 -5.52943,4.61651 -13.28258,7.62439 -21.94263,7.92448 -8.66005,0.30016 -16.60283,-2.16382 -22.43853,-6.38652 z"
           fill="#3d2949"
           stroke-linecap="butt"
           id="path3" />
        <path
           d="m 355.54407,150.91611 c -0.65766,1.32451 -2.25725,2.84966 -3.38753,4.28267 -1.92002,2.46738 -3.37864,7.06633 -5.86885,8.16927 -1.30018,0.40542 -1.38004,-3.57875 -1.72051,-5.14971 -0.22753,-0.97342 -0.41099,-1.70883 0.24659,-3.03229 0.65766,-1.32459 1.83955,-2.85727 3.38753,-4.28267 1.54805,-1.4254 3.17288,-2.4771 4.54712,-3.02348 1.37311,-0.54638 2.49669,-0.58857 3.04224,0.004 0.54555,0.59249 0.41107,1.70876 -0.24659,3.03229 z"
           fill="#5b3e6d"
           stroke-linecap="round"
           id="path4" />
        <path
           d="m 287.67179,145.09615 c 0.54555,-0.59249 1.66913,-0.5503 3.04224,-0.004 1.37424,0.54638 2.99907,1.59808 4.54705,3.02348 1.54805,1.4254 2.72987,2.95808 3.38761,4.28267 0.65759,1.32346 0.73534,2.14883 0.24659,3.03229 -0.77482,1.39428 -1.9876,3.59894 -3.30096,3.02868 -2.37237,-0.89604 -2.88718,-4.05853 -4.2884,-6.04824 -1.04929,-1.48544 -2.72987,-2.95816 -3.38753,-4.28267 -0.65766,-1.32353 -0.79215,-2.4398 -0.24659,-3.03229 z"
           fill="#5b3e6d"
           stroke-linecap="butt"
           id="path5" />
        <path
           d="m 298.1702,204.17902 c -5.8357,-4.2227 -9.03984,-10.46856 -9.79786,-16.94037 -1.07287,-9.23679 0.4782,-18.34113 4.46078,-26.14242 2.89562,-5.01047 5.49334,-6.71705 9.34423,-8.26352 3.64513,-1.43489 7.39972,0.24569 13.99178,-0.3746 1.47007,-0.0267 2.93269,0.21819 4.41708,0.17781 1.41078,-0.0842 2.82171,-0.63227 4.24477,-0.55143 4.96188,0.28238 10.40919,-0.48716 15.15936,1.49629 3.69576,1.65692 7.31187,4.87878 8.75972,8.81246 2.61708,7.12488 3.5682,14.84345 2.40296,22.66983 -0.96325,6.44469 -3.0723,12.96148 -8.60166,17.57799 -5.52943,4.61651 -13.28258,7.62439 -21.94263,7.92448 -8.66005,0.30016 -16.60283,-2.16382 -22.43853,-6.38652 z"
           fill="#5b3e6d"
           stroke-linecap="butt"
           id="path6" />
      </g>
    </g>
  </g>
</svg>
