<svg version="1.1" xmlns="http://www.w3.org/2000/svg" xmlns:xlink="http://www.w3.org/1999/xlink" width="66.64351" height="68.42344" viewBox="0,0,66.64351,68.42344"><g transform="translate(-207.03725,-144.20694)"><g data-paper-data="{&quot;isPaintingLayer&quot;:true}" fill-rule="nonzero" stroke-linejoin="miter" stroke-miterlimit="10" stroke-dasharray="" stroke-dashoffset="0" style="mix-blend-mode: normal"><path d="M208.56931,182.62501c0,-19.47101 14.072,-35.25538 31.43069,-35.25538c17.35869,0 31.43069,15.78437 31.43069,35.25538c0,19.47101 -14.072,30.00538 -31.43069,30.00538c-17.35869,0 -31.43069,-10.53437 -31.43069,-30.00538z" fill="#765519" stroke="#000000" stroke-width="0" stroke-linecap="butt"/><path d="M254.3691,186.9164c0,0 -0.06524,6.81776 -6.71845,6.72805c-7.40484,-0.21072 -7.80209,-7.80453 -7.80209,-7.80453c0,0 -0.91719,8.12888 -7.21102,7.89424c-7.76848,-0.28962 -6.98453,-6.81776 -6.98453,-6.81776" fill="none" stroke="#000000" stroke-width="2" stroke-linecap="round"/><path d="M228.69292,173.1594c0,-1.38071 1.11929,-2.5 2.5,-2.5c1.38071,0 2.5,1.11929 2.5,2.5c0,1.38071 -1.11929,2.5 -2.5,2.5c-1.38071,0 -2.5,-1.11929 -2.5,-2.5z" fill="#000000" stroke="none" stroke-width="0.5" stroke-linecap="butt"/><path d="M246.38935,173.1594c0,-1.38071 1.11929,-2.5 2.5,-2.5c1.38071,0 2.5,1.11929 2.5,2.5c0,1.38071 -1.11929,2.5 -2.5,2.5c-1.38071,0 -2.5,-1.11929 -2.5,-2.5z" fill="#000000" stroke="none" stroke-width="0.5" stroke-linecap="butt"/><path d="M244.07897,182.1708c0,2.02427 -4.07897,3.66527 -4.07897,3.66527c0,0 -4.07897,-1.641 -4.07897,-3.66527c0,-2.02427 1.82622,-2.01963 4.07897,-2.01963c2.25275,0 4.07897,-0.00464 4.07897,2.01963z" fill="#94601f" stroke="#000000" stroke-width="2" stroke-linecap="butt"/><path d="M238.34682,166.7697c0,1.25724 -0.05694,2.77184 -1.84019,3.45569c-1.16624,0.44724 -3.7024,0.3095 -5.25093,0.3095c-1.2412,0 -4.11343,0.03132 -5.1282,-0.26619c-2.18712,-0.64123 -1.96292,-2.07859 -1.96292,-3.499c0,-1.10458 -0.00712,-2.49937 1.41977,-3.18812c1.25935,-0.60788 3.83532,-0.57709 5.67135,-0.57709c1.43509,0 4.07482,-0.07461 5.19105,0.31453c1.92992,0.67281 1.90008,2.13321 1.90008,3.45068z" fill="#a86d23" stroke="#000000" stroke-width="0" stroke-linecap="butt"/><path d="M243.71521,163.31903c1.11623,-0.38914 3.75596,-0.31453 5.19105,-0.31453c1.83603,0 4.41199,-0.03079 5.67135,0.57709c1.42689,0.68875 1.41977,2.08354 1.41977,3.18812c0,1.42041 0.2242,2.85777 -1.96292,3.499c-1.01477,0.29752 -3.887,0.26619 -5.1282,0.26619c-1.54853,0 -4.08469,0.13774 -5.25093,-0.3095c-1.78325,-0.68385 -1.84019,-2.19846 -1.84019,-3.45569c0,-1.31746 -0.02985,-2.77787 1.90007,-3.45068z" data-paper-data="{&quot;index&quot;:null}" fill="#a86d23" stroke="#000000" stroke-width="0" stroke-linecap="butt"/><g data-paper-data="{&quot;index&quot;:null}" stroke="#000000" stroke-width="0" stroke-linecap="butt"><path d="M271.46579,146.42192c3.80916,3.80916 2.58307,11.21111 -2.73855,16.53273c-5.32162,5.32162 -19.11579,-8.47256 -13.79418,-13.79417c5.32162,-5.32162 12.72357,-6.54771 16.53273,-2.73855z" fill="#765519"/><path d="M269.55391,148.3338c2.87052,2.87052 1.94657,8.4485 -2.06372,12.45878c-4.01028,4.01028 -14.40534,-6.38477 -10.39506,-10.39505c4.01028,-4.01028 9.58826,-4.93424 12.45878,-2.06372z" fill="#a86d23"/></g><g stroke="#000000" stroke-width="0" stroke-linecap="butt"><path d="M225.78496,149.16046c5.32162,5.32162 -8.47256,19.11579 -13.79418,13.79417c-5.32162,-5.32162 -6.54771,-12.72357 -2.73855,-16.53272c3.80916,-3.80916 11.21111,-2.58307 16.53273,2.73855z" fill="#765519"/><path d="M223.62289,150.39752c4.01028,4.01028 -6.38478,14.40533 -10.39506,10.39505c-4.01028,-4.01028 -4.93423,-9.58826 -2.06372,-12.45878c2.87052,-2.87052 8.4485,-1.94656 12.45878,2.06372z" fill="#a86d23"/></g></g></g></svg>