<?xml version="1.0" encoding="UTF-8" standalone="no"?>
<svg
   version="1.1"
   width="88.915634"
   height="68.519272"
   viewBox="0 0 88.915631 68.519271"
   id="svg18"
   xmlns="http://www.w3.org/2000/svg"
   xmlns:svg="http://www.w3.org/2000/svg">
  <defs
     id="defs18" />
  <g
     transform="translate(-278.48778,-151.89463)"
     id="g18">
    <g
       data-paper-data="{&quot;isPaintingLayer&quot;:true}"
       fill-rule="nonzero"
       stroke-width="1"
       stroke-miterlimit="10"
       stroke-dasharray="none"
       stroke-dashoffset="0"
       style="mix-blend-mode:normal"
       id="g17">
      <g
         id="g16">
        <path
           d="m 340.66171,202.79632 4.16916,-9.11345 4.54817,1.17939 -2.77944,9.11345 c 0,0 -1.76561,3.96559 -4.62592,2.7794 -3.04735,-1.26376 -1.31198,-3.95879 -1.31198,-3.95879 z"
           data-paper-data="{&quot;index&quot;:null}"
           fill="#faa51d"
           stroke="#414042"
           stroke-linecap="butt"
           stroke-linejoin="miter"
           id="path1" />
        <path
           d="m 344.6711,194.40418 0.0331,-0.008 c 0.008,-0.0224 0.0168,-0.0447 0.0258,-0.0668 -0.0714,-0.28379 -0.0109,-0.50325 0.24632,-0.68984 0.004,-0.0661 0.007,-0.12422 0.007,-0.17079 0,0 0,-0.32165 0.32165,-0.32165 0.20572,0 0.27986,0.13157 0.30659,0.22641 l 0.2295,-0.012 c 0,0 0.0479,0 0.10676,0.0185 l 0.006,-0.002 10e-4,0.004 c 0.0379,0.0128 0.0797,0.0333 0.11566,0.0663 0.18753,-0.0535 0.38096,-0.0831 0.5722,-0.0831 l 0.37185,0.11957 c 0,0 0.2421,0.0807 0.22313,0.31399 0.13035,0.0301 0.25768,0.0675 0.3792,0.11346 0.0334,0.006 0.0658,0.0127 0.0971,0.0211 0.1229,-0.21023 0.37275,-0.12695 0.37275,-0.12695 0.35321,0.12343 0.64402,0.0525 0.85141,0.24525 0.48643,-0.2667 1.09097,-0.12174 1.38117,0.36568 0.0304,0.051 0.0245,0.6579 0.0245,0.76639 v 0.32165 c 0,0 0,0.32165 -0.32165,0.32165 -0.32165,0 -0.32165,-0.32165 -0.32165,-0.32165 v -0.32165 c 0,-0.1736 0.0624,-0.35081 0.0245,-0.52021 -0.0594,-0.26558 -0.14025,-0.0659 -0.25621,-0.0287 -0.12704,0.0407 -0.21995,0.0875 -0.2946,0.14295 l -0.0263,0.0788 -0.0152,-0.005 c -0.0277,0.14474 -0.0796,0.27833 -0.18024,0.37711 l -0.0166,0.0498 c -0.0404,0.13143 -0.1628,0.22697 -0.30749,0.22697 -0.15213,0 -0.27959,-0.10561 -0.31307,-0.24752 -0.0275,-0.0298 -0.0567,-0.0628 -0.0867,-0.0976 -0.1284,0.11482 -0.25459,0.23328 -0.44212,0.32062 -0.22565,0.10509 -0.46188,0.0848 -0.69564,0.0262 -0.0339,0.008 -0.0687,0.008 -0.10465,-0.003 -0.15275,-0.0506 -0.27392,-0.0981 -0.3686,-0.14316 -0.10011,-0.0314 -0.19794,-0.0585 -0.29232,-0.0736 -0.26245,-0.0421 -0.53849,-0.0269 -0.78893,-0.11589 -0.10918,-0.0388 -0.23603,-0.062 -0.34166,-0.11175 -0.005,0.002 -0.0103,0.003 -0.0155,0.005 -0.0563,0.5072 0.0182,1.09724 0.0182,1.51352 v 0.10721 c 0,0 0,0.32165 -0.32165,0.32165 -0.32165,0 -0.32165,-0.32165 -0.32165,-0.32165 v -0.10721 c 0,-0.7136 -0.0868,-1.4737 0.12944,-2.12307 z m 1.97727,0.31574 c 0.0597,-0.0509 0.11293,-0.10344 0.14398,-0.15937 -0.12051,-3.8e-4 -0.24073,-0.007 -0.35969,-0.0241 -0.1324,-0.0189 -0.24971,-0.0602 -0.3591,-0.1154 l -0.41139,-0.10284 c -0.0356,-0.008 -0.069,-0.0221 -0.0991,-0.0409 -0.01,0.1523 -0.0121,0.27008 0.003,0.28969 0.0708,0.0945 0.72447,0.0612 0.86275,0.085 0.0581,0.01 0.13407,0.0359 0.21988,0.0679 z"
           data-paper-data="{&quot;index&quot;:null}"
           fill="#faa51d"
           stroke="none"
           stroke-linecap="butt"
           stroke-linejoin="miter"
           id="path2" />
        <path
           d="m 351.0773,162.85544 3.62394,-2.53033"
           data-paper-data="{&quot;index&quot;:null}"
           fill="none"
           stroke="#414042"
           stroke-linecap="round"
           stroke-linejoin="round"
           id="path3" />
        <g
           data-paper-data="{&quot;index&quot;:null}"
           fill="#faa51d"
           stroke="#414042"
           stroke-linecap="round"
           stroke-linejoin="round"
           id="g5">
          <path
             d="m 349.87646,203.34061 c 0,0 -1.6297,6.39014 -0.83629,11.53656 0.23588,1.43671 -0.10721,1.92991 -1.45815,2.42311 -1.43671,0.51464 -8.01984,0.66475 -8.12706,-0.81485 -0.38598,-5.23219 4.65323,-2.18723 4.8891,-4.86766 0.0932,-1.08442 0.13452,-2.09759 0.13925,-3.03155"
             id="path4" />
          <path
             d="M 342.69292,213.63346"
             id="path5" />
        </g>
        <path
           d="m 366.90341,181.29535 c 0,0 -2.3847,0.81006 -3.51221,0.98025 -1.12272,0.1911 -3.35965,0.35137 -3.35965,0.35137"
           data-paper-data="{&quot;index&quot;:null}"
           fill="none"
           stroke="#414042"
           stroke-linecap="round"
           stroke-linejoin="round"
           id="path6" />
        <path
           d="m 359.34889,180.07748 c 0,0 1.14088,-1.49317 3.1087,-3.0877 2.18331,-1.77587 3.44529,-2.39483 3.44529,-2.39483"
           data-paper-data="{&quot;index&quot;:null}"
           fill="none"
           stroke="#414042"
           stroke-linecap="round"
           stroke-linejoin="round"
           id="path7" />
        <path
           d="m 322.81487,178.18748 c 0,0 -3.08785,-0.4932 -4.65322,-1.05073 -1.84413,-0.6433 -3.08785,-1.71547 -3.08785,-1.71547"
           data-paper-data="{&quot;index&quot;:null}"
           fill="none"
           stroke="#414042"
           stroke-linecap="round"
           stroke-linejoin="round"
           id="path8" />
        <path
           d="m 322.49322,182.21885 c 0,0 -1.84413,0.75052 -3.7526,0.94351 -1.88702,0.19299 -3.15218,0.0643 -3.15218,0.0643"
           data-paper-data="{&quot;index&quot;:null}"
           fill="none"
           stroke="#414042"
           stroke-linecap="round"
           stroke-linejoin="round"
           id="path9" />
        <path
           d="m 343.14323,192.49025 c 4.80333,0 7.67675,1.30805 7.67675,6.0256 0,4.71756 0.72908,11.08625 -7.67675,11.08625 -8.40582,0 -7.20499,-6.99056 -7.20499,-11.72955 0,-4.71756 2.40166,-5.3823 7.20499,-5.3823 z"
           data-paper-data="{&quot;index&quot;:null}"
           fill="#faa51d"
           stroke="#414042"
           stroke-linecap="round"
           stroke-linejoin="round"
           id="path10" />
        <g
           data-paper-data="{&quot;index&quot;:null}"
           fill="#faa51d"
           stroke="#414042"
           stroke-linecap="round"
           stroke-linejoin="round"
           id="g12">
          <path
             d="m 342.18,209.29567 c -0.71166,2.1344 -1.28695,4.36465 -0.75224,7.83306 0.23588,1.43671 -0.10722,1.92991 -1.45815,2.42311 -1.43671,0.51464 -8.01984,0.66475 -8.12706,-0.81485 -0.38598,-5.23219 4.65323,-2.18723 4.8891,-4.86766 0.53608,-6.24004 0,-7.65531 0,-7.65531"
             id="path11" />
          <path
             d="M 335.72381,214.4912"
             id="path12" />
        </g>
        <path
           d="m 339.83646,196.75306 c 0.081,0.46482 0.16281,0.93111 0.29969,1.38738 0.16833,0.56109 0.55808,0.86597 -0.0137,1.24438 l -0.39299,-0.0194 c 0,-0.37801 -0.0375,-0.72714 -0.0833,-1.07517 -0.0785,0.0646 -0.18921,0.11021 -0.34557,0.11021 -0.0674,0 -0.12638,-0.008 -0.17791,-0.0233 -0.11659,-0.33316 -0.23747,-0.6651 -0.33595,-1.00332 -0.007,-0.0237 -0.0135,-0.0473 -0.0198,-0.0708 0.0121,-0.35182 0.0633,-0.70629 0.007,-1.05277 -0.0168,-0.10399 -0.19127,-0.44069 -0.30931,-0.70235 -0.029,-0.10494 -0.064,-0.21093 -0.107,-0.31845 0.002,-0.007 0.004,-0.0138 0.007,-0.0201 l 0.0556,-0.16744 c -0.0651,-0.1084 -0.22577,-0.44896 0.12996,-0.71576 0.0459,-0.0345 0.0906,-0.0603 0.13387,-0.079 l 0.0806,-0.24267 c 0.0444,0.0657 0.0908,0.13346 0.13847,0.20308 0.24073,0.0166 0.39761,0.22579 0.39761,0.22579 0.46557,0.62076 1.04286,1.35603 1.26716,2.10846 0.0597,0.20016 -0.005,0.41864 0.0168,0.62636 0.079,0.75475 0.21705,1.42719 0.21705,2.19716 l -0.39299,1.05272 c -0.32159,-0.28647 -0.70502,-0.51588 -0.96477,-0.85941 -0.11845,-0.15666 -0.0644,-0.3886 -0.12106,-0.57664 -0.0613,-0.20318 -0.12992,-0.40428 -0.20014,-0.60493 -0.35817,-0.10307 -0.35817,-0.51278 -0.35817,-0.51278 v -0.42887 c 0,-0.0441 9.1e-4,-0.0883 0.002,-0.13246 -0.16315,-0.60801 -0.13878,-1.16491 -0.30207,-1.75511 -0.0679,-0.15049 -0.11714,-0.27616 -0.10701,-0.31845 l 0.007,-0.0201 c 0.0193,-0.0445 0.0631,-0.0673 0.1171,-0.0812 -0.0131,-0.0173 -0.026,-0.0344 -0.0388,-0.0515 0,0 -0.009,-0.0125 -0.0228,-0.0348 l 0.26384,-0.79475 c 0.0785,-0.0339 0.152,-0.0442 0.21903,-0.0396 0.15316,0.22373 0.3188,0.46645 0.4682,0.71988 l 0.0144,-0.004 c 0.0115,0.0287 0.0226,0.0574 0.0335,0.0862 0.19079,0.33513 0.34834,0.68713 0.40792,1.03734 0.006,0.0368 0.009,0.3705 0.009,0.70558 z"
           fill="#faa51d"
           stroke="none"
           stroke-linecap="butt"
           stroke-linejoin="miter"
           id="path13" />
        <path
           d="m 332.72765,203.9757 4.16916,-9.11345 4.54817,1.17939 -2.77944,9.11345 c 0,0 -1.76561,3.96558 -4.62592,2.7794 -3.04735,-1.26376 -1.31198,-3.95879 -1.31198,-3.95879 z"
           fill="#faa51d"
           stroke="#414042"
           stroke-linecap="butt"
           stroke-linejoin="miter"
           id="path14" />
        <path
           d="m 337.17239,195.95566 0.30604,-1.03209 c 0,0 1.76016,-0.0144 2.87153,0.16794 0.80515,0.13206 2.01867,0.46966 2.01867,0.46966 l -0.44821,1.63276 z"
           fill="#faa51d"
           stroke="none"
           stroke-linecap="butt"
           stroke-linejoin="miter"
           id="path15" />
        <path
           d="m 342.4356,160.32511 c 1.05073,-0.10722 3.21651,-0.21443 4.41735,-0.1501 3.19507,0.1501 6.26148,1.30805 6.26148,1.30805 l 8.81325,-5.76828 -1.52248,12.82317 c -0.42887,-0.53608 7.1621,8.68459 2.35877,16.42566 -4.80333,7.74108 -15.07473,11.19347 -27.76923,8.66314 -12.71595,-2.53033 -15.73947,-9.84253 -14.90318,-13.72379 0.83629,-3.88126 5.63962,-5.29652 5.63962,-5.29652 0,0 0.0643,-3.04496 2.25156,-6.75468 1.30805,-2.20867 5.66106,-5.44663 5.66106,-5.44663 l 1.92991,-7.82685 5.06065,4.84621 z"
           data-paper-data="{&quot;index&quot;:null}"
           fill="#faa51d"
           stroke="#414042"
           stroke-linecap="round"
           stroke-linejoin="round"
           id="path16" />
      </g>
      <text
         transform="matrix(0.38266,0,0,0.38266,276.99301,163.02316)"
         font-size="40px"
         xml:space="preserve"
         fill="#414042"
         fill-rule="nonzero"
         stroke="none"
         stroke-width="1"
         stroke-linecap="butt"
         stroke-linejoin="miter"
         stroke-miterlimit="10"
         stroke-dasharray="none"
         stroke-dashoffset="0"
         font-family="'Noto Sans', sans-serif"
         font-weight="normal"
         text-anchor="start"
         style="mix-blend-mode:normal"
         id="text16"><tspan
           x="0"
           dy="0"
           id="tspan16">M A N.</tspan></text>
    </g>
  </g>
  <style
     id="style18">@import url('https://fonts.googleapis.com/css2?family=Noto+Sans:wght@600&amp;display=swap');</style>
</svg>
