<?xml version="1.0" encoding="UTF-8" standalone="no"?>
<svg
   version="1.1"
   width="53.667885"
   height="65.390549"
   viewBox="0 0 53.667883 65.390548"
   id="svg13"
   xmlns="http://www.w3.org/2000/svg"
   xmlns:svg="http://www.w3.org/2000/svg">
  <defs
     id="defs13" />
  <g
     transform="translate(-293.20338,-145.53245)"
     id="g13">
    <g
       data-paper-data="{&quot;isPaintingLayer&quot;:true}"
       fill-rule="nonzero"
       stroke-miterlimit="10"
       stroke-dasharray="none"
       stroke-dashoffset="0"
       style="mix-blend-mode:normal"
       id="g12">
      <g
         stroke-width="1.32684"
         id="g11">
        <g
           fill="#927323"
           stroke="#927323"
           id="g5">
          <path
             d="m 319.88376,203.40622 c 0,-0.7757 0.21803,-1.88998 1.42412,-2.1415 1.74006,-0.36429 3.73094,1.39411 4.27241,1.91147 -0.04,0.20588 0.63704,4.35983 0.63704,4.71997 0,1.21762 -0.32607,1.26588 -0.45263,1.28588 -1.1914,0.17308 -4.36651,-3.15887 -5.82389,-5.09745 -0.0201,-0.10521 -0.0571,-0.33939 -0.0571,-0.67838 v 0 z"
             stroke-linecap="butt"
             stroke-linejoin="miter"
             id="path1" />
          <path
             d="m 315.05927,209.22689 c -0.86373,-0.93519 -0.98692,-3.46955 -0.98692,-4.54764 0,-0.45745 0.0234,-0.76171 0.0245,-0.77114 l 0.002,-0.0234 c 0,0 -0.003,-0.0977 -0.003,-0.13346 0,-2.03026 1.87304,-2.73502 2.19046,-2.84097 1.08444,0.0132 2.95896,0.52526 3.40635,1.29794 0.0453,0.0776 0.0876,0.17569 0.0876,0.30125 0,0.11016 -0.0329,0.24362 -0.12655,0.40464 -0.0435,0.0739 -0.81356,1.88998 -1.46496,3.28255 l -0.4655,1.28776 c -0.3484,1.12519 -0.89666,2.25119 -1.49332,2.25119 -0.47154,7.4e-4 -0.85433,-0.16591 -1.17061,-0.50872 z"
             stroke-linecap="butt"
             stroke-linejoin="miter"
             id="path2" />
          <path
             d="m 339.48802,194.50846 -0.8422,-1.48307 c -0.92234,-1.60299 -1.98792,-3.07066 -2.92764,-4.36257 -1.20803,-1.66404 -2.25921,-3.38583 -2.6072,-4.60231 -0.12548,-0.43818 -0.065,-0.85635 0.11562,-1.08752 0.0174,-0.0622 0.19951,-0.16137 0.32795,-0.1878 1.54771,-0.33371 7.95426,3.33683 9.55261,5.29883 2.34156,2.87343 3.27786,6.9041 2.75569,8.9343 -0.21427,0.82958 -0.69338,1.41747 -1.38709,1.69729 -1.77331,0.71493 -2.93971,-0.57544 -4.98773,-4.20716 v 0 z"
             stroke-linecap="butt"
             stroke-linejoin="miter"
             id="path3" />
          <path
             d="m 314.26919,166.18249 c 2.27435,-1.23348 -0.0729,-5.87769 -2.34384,-10.37024 -1.24123,-2.45639 -3.45471,-6.60507 -2.73529,-6.99385 1.39165,-0.75267 8.04004,7.07718 10.73529,10.23298 l 2.74737,3.12306 c 0,0 1.96411,2.40466 3.46718,3.99072 0.0265,0.0275 1.44759,-0.19269 2.42927,-1.00686 0.80029,-0.66628 0.69446,-1.41178 0.94917,-2.97971 0.23386,-1.44049 0.48782,-4.04727 1.26242,-4.06046 1.1668,-0.0177 1.93387,4.78182 2.23272,6.55976 l 0.16512,0.95104 c 0.39186,2.11467 2.43605,8.47276 2.5237,8.74235 0.028,0.0656 0.0741,0.15085 0.0741,0.15085 l 0.017,0.0343 0.0234,0.0286 c 3.15665,3.907 5.50426,8.6443 5.50426,13.08263 0,9.39851 -8.25539,16.01449 -19.30542,16.01449 -2.04949,0 -4.05399,-0.28659 -5.95802,-0.84999 l -0.1024,-0.0294 c 0,0 -2.9888,-0.25077 -6.81235,4.76488 -0.76703,1.0068 -0.69868,1.9454 -1.7797,1.65654 -0.36047,-0.0962 -0.62537,-0.36054 -0.84146,-0.84055 -0.51694,-1.14481 -0.13533,-3.8572 0.49649,-5.5903 l 0.0994,-0.27226 -0.22823,-0.18024 c -0.0559,-0.0445 -6.25733,-4.55406 -6.88378,-11.01623 -0.54603,-5.63288 2.30528,-8.84001 3.48836,-10.60255 l 0.67977,-1.12975 c 0.8581,-2.0834 -0.75689,-4.98092 -2.18214,-7.53758 -0.85092,-1.52644 -2.22446,-3.75386 -1.91423,-4.27731 0.34424,-0.57994 1.57454,0.0373 2.81692,0.62864 1.00737,0.48041 1.97659,1.15913 2.64953,0.71152 0.69981,-0.46495 0.2407,-1.63278 -0.39522,-3.24936 -0.59815,-1.51813 -1.7306,-3.91637 -1.29568,-4.90624 0.11978,-0.27226 0.32989,-0.46347 0.64235,-0.58448 1.15552,-0.44648 2.80746,1.4959 4.14472,3.01518 1.63121,1.85491 3.48119,3.95679 5.62928,2.78969 v 0 z"
             stroke-linecap="round"
             stroke-linejoin="round"
             id="path4" />
          <path
             d="m 294.92869,200.21114 c -0.63067,-0.40197 -0.99416,-1.06563 -1.05271,-1.92164 -0.14245,-2.09318 1.51747,-5.88405 4.34492,-8.28155 1.93085,-1.63733 8.90229,-4.07632 10.36234,-3.4666 0.12052,0.0505 0.28221,0.1803 0.28717,0.24589 0.13641,0.25942 0.11824,0.68066 -0.0854,1.08865 -0.56449,1.13276 -1.91343,2.63469 -3.40674,4.04841 -1.16075,1.10258 -2.4761,2.34771 -3.67575,3.75688 l -1.10033,1.30095 c -2.67788,3.19849 -4.0627,4.25656 -5.67347,3.22901 v 0 z"
             stroke-linecap="butt"
             stroke-linejoin="miter"
             id="path5" />
        </g>
        <g
           fill="#ffc93e"
           stroke="#ffc93e"
           id="g10">
          <path
             d="m 320.0826,200.84368 c 0,-0.7757 0.21803,-1.88998 1.42412,-2.1415 1.74006,-0.36429 3.73094,1.39411 4.27241,1.91147 -0.04,0.20588 0.63704,4.35983 0.63704,4.71997 0,1.21762 -0.32607,1.26588 -0.45263,1.28588 -1.1914,0.17308 -4.36651,-3.15887 -5.82389,-5.09745 -0.0201,-0.10521 -0.0571,-0.33939 -0.0571,-0.67838 v 0 z"
             stroke-linecap="butt"
             stroke-linejoin="miter"
             id="path6" />
          <path
             d="m 315.25811,206.66436 c -0.86373,-0.93519 -0.98692,-3.46955 -0.98692,-4.54764 0,-0.45745 0.0234,-0.76171 0.0245,-0.77114 l 0.002,-0.0234 c 0,0 -0.003,-0.0976 -0.003,-0.13346 0,-2.03026 1.87304,-2.73502 2.19046,-2.84097 1.08444,0.0132 2.95896,0.52526 3.40635,1.29794 0.0453,0.0776 0.0876,0.17569 0.0876,0.30125 0,0.11016 -0.0329,0.24362 -0.12655,0.40464 -0.0435,0.0739 -0.81356,1.88998 -1.46496,3.28255 l -0.4655,1.28776 c -0.3484,1.12519 -0.89666,2.25119 -1.49332,2.25119 -0.47154,7.4e-4 -0.85433,-0.16591 -1.17061,-0.50872 z"
             stroke-linecap="butt"
             stroke-linejoin="miter"
             id="path7" />
          <path
             d="m 339.68686,191.94593 -0.8422,-1.48307 c -0.92234,-1.60299 -1.98792,-3.07066 -2.92764,-4.36257 -1.20803,-1.66404 -2.25921,-3.38583 -2.6072,-4.60231 -0.12548,-0.43818 -0.065,-0.85635 0.11562,-1.08752 0.0174,-0.0622 0.19951,-0.16137 0.32795,-0.1878 1.54771,-0.33371 7.95426,3.33683 9.55261,5.29883 2.34156,2.87343 3.27786,6.9041 2.75569,8.9343 -0.21427,0.82958 -0.69338,1.41747 -1.38709,1.69729 -1.77331,0.71493 -2.93971,-0.57544 -4.98773,-4.20716 v 0 z"
             stroke-linecap="butt"
             stroke-linejoin="miter"
             id="path8" />
          <path
             d="m 314.46803,163.61995 c 2.27435,-1.23348 -0.0729,-5.87769 -2.34384,-10.37024 -1.24123,-2.45639 -3.45471,-6.60507 -2.73529,-6.99385 1.39165,-0.75267 8.04004,7.07718 10.73529,10.23298 l 2.74737,3.12306 c 0,0 1.96411,2.40466 3.46718,3.99072 0.0265,0.0275 1.44759,-0.19269 2.42927,-1.00686 0.80029,-0.66628 0.69446,-1.41178 0.94917,-2.97971 0.23386,-1.44049 0.48782,-4.04727 1.26242,-4.06046 1.1668,-0.0177 1.93387,4.78182 2.23272,6.55976 l 0.16512,0.95104 c 0.39186,2.11467 2.43605,8.47276 2.5237,8.74235 0.028,0.0656 0.0741,0.15085 0.0741,0.15085 l 0.017,0.0343 0.0234,0.0286 c 3.15665,3.907 5.50426,8.6443 5.50426,13.08263 0,9.39851 -8.25539,16.01449 -19.30542,16.01449 -2.04949,0 -4.05399,-0.28659 -5.95802,-0.84999 l -0.1024,-0.0294 c 0,0 -2.9888,-0.25077 -6.81235,4.76488 -0.76703,1.0068 -0.69868,1.9454 -1.7797,1.65654 -0.36047,-0.0962 -0.62537,-0.36054 -0.84146,-0.84055 -0.51694,-1.14481 -0.13533,-3.8572 0.49649,-5.5903 l 0.0994,-0.27226 -0.22823,-0.18024 c -0.0559,-0.0445 -6.25733,-4.55406 -6.88378,-11.01623 -0.54603,-5.63288 2.30528,-8.84001 3.48836,-10.60255 l 0.67977,-1.12975 c 0.8581,-2.0834 -0.75689,-4.98092 -2.18214,-7.53758 -0.85092,-1.52644 -2.22446,-3.75386 -1.91423,-4.27731 0.34424,-0.57994 1.57454,0.0373 2.81692,0.62864 1.00737,0.48041 1.97659,1.15913 2.64953,0.71152 0.69981,-0.46495 0.2407,-1.63278 -0.39522,-3.24936 -0.59815,-1.51813 -1.7306,-3.91637 -1.29568,-4.90624 0.11978,-0.27226 0.32989,-0.46347 0.64235,-0.58448 1.15552,-0.44648 2.80746,1.4959 4.14472,3.01518 1.63121,1.85491 3.48119,3.95679 5.62928,2.78969 v 0 z"
             stroke-linecap="round"
             stroke-linejoin="round"
             id="path9" />
          <path
             d="m 295.12753,197.64861 c -0.63067,-0.40197 -0.99416,-1.06563 -1.05271,-1.92164 -0.14245,-2.09318 1.51747,-5.88405 4.34492,-8.28155 1.93085,-1.63733 8.90229,-4.07632 10.36234,-3.4666 0.12052,0.0505 0.28221,0.1803 0.28717,0.24589 0.13641,0.25942 0.11824,0.68066 -0.0854,1.08865 -0.56449,1.13276 -1.91343,2.63469 -3.40674,4.04841 -1.16075,1.10258 -2.4761,2.34771 -3.67575,3.75688 l -1.10033,1.30095 c -2.67788,3.19849 -4.0627,4.25656 -5.67347,3.22901 v 0 z"
             stroke-linecap="butt"
             stroke-linejoin="miter"
             id="path10" />
        </g>
      </g>
    </g>
  </g>
</svg>
