<?xml version="1.0" encoding="UTF-8" standalone="no"?>
<svg
   version="1.1"
   width="88.925659"
   height="75.864891"
   viewBox="0 0 88.925656 75.86489"
   id="svg20"
   xmlns="http://www.w3.org/2000/svg"
   xmlns:svg="http://www.w3.org/2000/svg">
  <defs
     id="defs20" />
  <g
     transform="translate(-275.49698,-141.21971)"
     id="g20">
    <g
       data-paper-data="{&quot;isPaintingLayer&quot;:true}"
       fill-rule="nonzero"
       stroke-linejoin="miter"
       stroke-miterlimit="10"
       stroke-dasharray="none"
       stroke-dashoffset="0"
       style="mix-blend-mode:normal"
       id="g19">
      <g
         stroke="none"
         stroke-width="0"
         id="g18">
        <g
           fill="#004343"
           id="g2">
          <path
             d="m 361.8432,189.28394 c 1.39873,1.93403 2.33876,4.59814 1.81632,7.12399 -0.52236,2.52591 -2.20164,4.56472 -4.4931,5.81914 -2.29083,1.25385 -5.19378,1.72333 -8.16332,1.10917 -2.96954,-0.6141 -5.44816,-2.19656 -7.05365,-4.25624 -1.60594,-2.06045 -2.40032,-4.63168 -1.81639,-7.12398 0.78604,-3.34958 2.78372,-6.77636 5.31307,-8.26689 2.42686,-1.55782 5.38851,-0.70831 7.7491,0.23381 2.55793,1.03042 4.97703,3.03497 6.64797,5.361 z"
             stroke-linecap="butt"
             id="path1" />
          <path
             d="m 364.37134,194.14097 c 0.1671,1.23998 -0.0714,2.73045 -0.75478,4.17673 -0.68342,1.44635 -1.68348,2.57696 -2.7475,3.23512 -1.06384,0.65771 -2.19145,0.84371 -3.12919,0.4006 -0.9378,-0.44311 -1.63146,-1.64789 -1.67743,-2.67182 -0.0441,-1.18612 0.52619,-2.24009 0.86656,-3.33003 0.83798,-1.40377 1.45227,-3.03421 2.63572,-4.08181 0.767,-0.67948 2.1914,-0.84371 3.12919,-0.4006 0.9378,0.44311 1.51007,1.43235 1.67743,2.67182 z"
             stroke-linecap="round"
             id="path2" />
        </g>
        <g
           fill="#004343"
           id="g4">
          <path
             d="m 284.90214,185.00209 c 2.34316,-0.98465 5.28888,-1.88769 7.74362,-0.37405 2.55589,1.4445 4.61526,4.83456 5.46183,8.16936 0.62899,2.48122 -0.11872,5.06647 -1.6871,7.15569 -1.56794,2.08839 -4.01753,3.71548 -6.97542,4.38324 -2.95795,0.66783 -5.86892,0.251 -8.18203,-0.96116 -2.31387,-1.21273 -4.02975,-3.22079 -4.59782,-5.73684 -0.56801,-2.51598 0.32363,-5.19664 1.6871,-7.15569 1.62854,-2.35595 4.01097,-4.40399 6.5498,-5.48056 z"
             stroke-linecap="butt"
             id="path3" />
          <path
             d="m 277.56484,192.70257 c 0.92958,-0.46005 2.35671,-0.3216 3.13587,0.34388 1.20223,1.02596 1.84599,2.64502 2.7093,4.03344 0.35998,1.08357 0.94932,2.12704 0.92665,3.3138 -0.0274,1.02456 -0.69914,2.24168 -1.62872,2.70173 -0.92964,0.45999 -2.06039,0.29448 -3.13594,-0.34387 -1.07581,-0.6388 -2.09617,-1.75114 -2.80562,-3.18483 -0.70952,-1.43368 -0.97497,-2.91963 -0.83034,-4.1624 0.14495,-1.24227 0.69915,-2.24168 1.62879,-2.70173 z"
             stroke-linecap="round"
             id="path4" />
        </g>
        <path
           d="m 319.69365,151.13858 c 2.81835,-0.19499 5.26698,2.91435 8.09864,2.31387 6.74618,-1.44444 13.77119,-8.87723 18.80041,-8.73496 2.69047,0.13883 -6.83753,6.68545 -6.94168,10.99103 -0.50849,4.0759 3.62069,7.05562 5.35088,10.75963 2.9479,6.32038 8.16281,12.50371 7.95402,19.37886 -0.2412,7.97775 -3.56511,16.42753 -9.32442,22.08269 -5.75988,5.65453 -13.7139,9.1549 -22.49163,9.1549 -8.7778,0 -16.73181,-3.50037 -22.49169,-9.1549 -5.75931,-5.65517 -8.86049,-14.1148 -9.32442,-22.08269 -0.43211,-7.40968 4.32124,-14.18534 7.23094,-20.96971 1.36748,-3.21169 7.31712,-4.86492 6.07396,-7.95402 -2.33411,-5.81711 -16.23662,-12.78946 -13.88335,-13.0735 2.89582,-0.29963 14.74648,8.15357 22.8497,9.89192 2.84381,0.60621 5.24795,-2.69683 8.09865,-2.60312 z"
           fill="#004343"
           stroke-linecap="round"
           id="path5" />
        <path
           d="m 314.51108,183.77442 c 4.06164,0.21039 7.77017,2.91976 11.3682,4.23237 3.22557,1.18071 6.37614,1.07059 9.75831,3.2602 3.3094,2.13551 6.14151,5.29856 6.14151,8.69008 0,3.39152 -2.34805,6.46431 -6.14151,8.69008 -3.79339,2.22514 -9.03217,3.60248 -14.81375,3.60248 -5.78152,0 -11.02031,-1.37735 -14.81376,-3.60248 -3.79339,-2.22577 -6.14144,-5.29856 -6.14144,-8.69008 0,-3.39152 2.86978,-6.48735 6.14144,-8.69008 3.25905,-2.19152 6.28658,-1.7253 8.86775,-3.85145 0.87433,-0.71455 -1.25055,-3.6965 -0.36673,-3.64112 z"
           fill="#004343"
           stroke-linecap="round"
           id="path6" />
        <path
           d="m 348.28617,182.21883 c 0.95358,0.0852 1.72702,1.17938 2.20654,2.878 0.47895,1.69863 0.66344,4.00218 0.43974,6.50569 -0.22369,2.5035 -0.8136,4.73792 -1.58608,6.32471 -0.77305,1.58671 -1.72823,2.52643 -2.68174,2.44125 -0.95358,-0.0852 -1.72702,-1.17938 -2.20654,-2.878 -0.47895,-1.69863 -0.66344,-4.00218 -0.43981,-6.50569 0.22369,-2.5035 0.8136,-4.73793 1.58608,-6.32471 0.77312,-1.58671 1.72823,-2.52643 2.68181,-2.44125 z"
           fill="#004343"
           stroke-linecap="butt"
           id="path7" />
        <path
           d="m 332.94234,192.56137 c 3.16579,-0.0768 6.81913,-0.76057 9.39215,0.87656 1.78743,1.35501 1.59289,4.39552 1.25226,6.42841 -0.33312,1.97941 -1.193,3.84202 -3.11983,5.16443 -1.92683,1.32242 -4.58758,2.14054 -7.52458,2.14054 -2.937,0 -5.59769,-0.81812 -7.52452,-2.14054 -1.9269,-1.32241 -2.89193,-3.17165 -3.11989,-5.16443 -0.21789,-1.92849 -0.14444,-4.48986 1.25232,-5.59355 2.75998,-1.74898 6.21878,-1.63383 9.39209,-1.71142 z"
           fill="#004343"
           stroke-linecap="round"
           id="path8" />
        <path
           d="m 307.23482,192.90856 c 2.71109,0.002 5.90082,-0.2242 8.15371,1.26385 1.68621,1.4277 2.173,4.18615 2.03842,6.27837 -0.12967,2.036 -1.14233,3.96679 -2.98755,5.33173 -1.84433,1.36576 -4.3924,2.21049 -7.20458,2.21049 -2.81225,0 -5.36031,-0.84473 -7.20464,-2.21049 -1.84523,-1.36493 -2.72827,-3.31042 -2.98755,-5.33173 -0.25361,-1.98954 -0.5838,-4.67287 0.81538,-5.87071 2.69479,-1.83212 6.22941,-1.67476 9.37681,-1.67151 z"
           fill="#004343"
           stroke-linecap="round"
           id="path9" />
        <g
           fill="#006666"
           id="g11">
          <path
             d="m 361.44222,186.66163 c 1.39873,1.93403 2.33876,4.59814 1.81632,7.12399 -0.52236,2.52591 -2.20164,4.56472 -4.4931,5.81914 -2.29083,1.25385 -5.19378,1.72333 -8.16332,1.10917 -2.96954,-0.6141 -5.44816,-2.19656 -7.05365,-4.25624 -1.60594,-2.06045 -2.40032,-4.63168 -1.81639,-7.12398 0.78604,-3.34958 2.78372,-6.77636 5.31307,-8.26689 2.42686,-1.55782 5.38851,-0.70831 7.7491,0.23381 2.55793,1.03042 4.97703,3.03497 6.64797,5.361 z"
             stroke-linecap="butt"
             id="path10" />
          <path
             d="m 363.97036,191.51866 c 0.1671,1.23998 -0.0714,2.73045 -0.75478,4.17673 -0.68342,1.44635 -1.68348,2.57696 -2.7475,3.23512 -1.06384,0.65771 -2.19145,0.84371 -3.12919,0.4006 -0.9378,-0.44311 -1.63146,-1.64789 -1.67743,-2.67182 -0.0441,-1.18612 0.52619,-2.24009 0.86656,-3.33003 0.83798,-1.40377 1.45227,-3.03421 2.63572,-4.08181 0.767,-0.67948 2.1914,-0.84371 3.12919,-0.4006 0.9378,0.44311 1.51007,1.43235 1.67743,2.67182 z"
             stroke-linecap="round"
             id="path11" />
        </g>
        <g
           fill="#006666"
           id="g13">
          <path
             d="m 284.50115,182.37981 c 2.34316,-0.98465 5.28888,-1.88769 7.74362,-0.37405 2.55589,1.4445 4.61526,4.83456 5.46183,8.16936 0.62899,2.48122 -0.11872,5.06647 -1.6871,7.15569 -1.56794,2.08839 -4.01753,3.71548 -6.97542,4.38324 -2.95795,0.66783 -5.86892,0.251 -8.18203,-0.96116 -2.31387,-1.21273 -4.02975,-3.22079 -4.59782,-5.73684 -0.56801,-2.51598 0.32363,-5.19664 1.6871,-7.15569 1.62854,-2.35595 4.01097,-4.40399 6.5498,-5.48056 z"
             stroke-linecap="butt"
             id="path12" />
          <path
             d="m 277.16385,190.08026 c 0.92958,-0.46005 2.35671,-0.3216 3.13587,0.34388 1.20223,1.02596 1.84599,2.64502 2.7093,4.03344 0.35998,1.08357 0.94932,2.12704 0.92665,3.3138 -0.0274,1.02456 -0.69914,2.24168 -1.62872,2.70173 -0.92964,0.45999 -2.06039,0.29448 -3.13594,-0.34387 -1.07581,-0.6388 -2.09617,-1.75114 -2.80562,-3.18483 -0.70952,-1.43368 -0.97497,-2.91963 -0.83034,-4.1624 0.14495,-1.24227 0.69915,-2.24168 1.62879,-2.70173 z"
             stroke-linecap="round"
             id="path13" />
        </g>
        <path
           d="m 319.29266,148.51628 c 2.81835,-0.19499 5.26698,2.91435 8.09864,2.31387 6.74618,-1.44444 13.77119,-8.87723 18.80042,-8.73496 2.69047,0.13883 -6.83753,6.68545 -6.94168,10.99103 -0.50849,4.0759 3.62069,7.05562 5.35088,10.75963 2.94789,6.32038 8.16281,12.50371 7.95402,19.37886 -0.2412,7.97775 -3.56511,16.42753 -9.32442,22.08269 -5.75988,5.65453 -13.71389,9.1549 -22.49163,9.1549 -8.7778,0 -16.73181,-3.50037 -22.49169,-9.1549 -5.75931,-5.65517 -8.86049,-14.1148 -9.32442,-22.08269 -0.43211,-7.40968 4.32124,-14.18534 7.23094,-20.96971 1.36748,-3.21169 7.31712,-4.86492 6.07396,-7.95402 -2.33411,-5.81711 -16.23662,-12.78946 -13.88335,-13.0735 2.89582,-0.29963 14.74648,8.15357 22.8497,9.89192 2.84381,0.60621 5.24795,-2.69683 8.09865,-2.60312 z"
           fill="#006666"
           stroke-linecap="round"
           id="path14" />
        <path
           d="m 314.11008,181.15211 c 4.06164,0.21039 7.77017,2.91976 11.3682,4.23237 3.22557,1.18071 6.37615,1.07059 9.75831,3.2602 3.3094,2.13551 6.14151,5.29856 6.14151,8.69008 0,3.39152 -2.34805,6.46431 -6.14151,8.69008 -3.79339,2.22514 -9.03217,3.60248 -14.81375,3.60248 -5.78152,0 -11.02031,-1.37735 -14.81376,-3.60248 -3.79339,-2.22577 -6.14144,-5.29856 -6.14144,-8.69008 0,-3.39152 2.86978,-6.48735 6.14144,-8.69008 3.25905,-2.19152 6.28658,-1.7253 8.86775,-3.85145 0.87433,-0.71455 -1.25055,-3.6965 -0.36673,-3.64112 z"
           fill="#006666"
           stroke-linecap="round"
           id="path15" />
        <path
           d="m 347.88516,179.59653 c 0.95358,0.0852 1.72702,1.17938 2.20654,2.878 0.47895,1.69863 0.66344,4.00218 0.43974,6.50569 -0.22369,2.5035 -0.8136,4.73792 -1.58608,6.32471 -0.77305,1.58671 -1.72823,2.52643 -2.68174,2.44125 -0.95358,-0.0852 -1.72702,-1.17938 -2.20654,-2.878 -0.47895,-1.69863 -0.66344,-4.00218 -0.43981,-6.50569 0.22369,-2.5035 0.8136,-4.73793 1.58608,-6.32471 0.77312,-1.58671 1.72823,-2.52643 2.68181,-2.44125 z"
           fill="#006666"
           stroke-linecap="butt"
           id="path16" />
        <path
           d="m 332.54135,189.93907 c 3.16579,-0.0768 6.81913,-0.76057 9.39215,0.87656 1.78743,1.35501 1.59289,4.39552 1.25226,6.42841 -0.33312,1.97941 -1.193,3.84202 -3.11983,5.16443 -1.92683,1.32242 -4.58758,2.14054 -7.52458,2.14054 -2.937,0 -5.59769,-0.81812 -7.52452,-2.14054 -1.9269,-1.32241 -2.89193,-3.17165 -3.11989,-5.16443 -0.21789,-1.92849 -0.14444,-4.48986 1.25232,-5.59355 2.75998,-1.74898 6.21878,-1.63383 9.39209,-1.71142 z"
           fill="#006666"
           stroke-linecap="round"
           id="path17" />
        <path
           d="m 306.83383,190.28627 c 2.71109,0.002 5.90082,-0.2242 8.15371,1.26385 1.68621,1.4277 2.173,4.18615 2.03842,6.27837 -0.12967,2.036 -1.14233,3.96679 -2.98755,5.33173 -1.84433,1.36576 -4.3924,2.21049 -7.20458,2.21049 -2.81225,0 -5.36031,-0.84473 -7.20464,-2.21049 -1.84523,-1.36493 -2.72827,-3.31042 -2.98755,-5.33173 -0.25361,-1.98954 -0.5838,-4.67287 0.81538,-5.87071 2.69479,-1.83212 6.22941,-1.67476 9.37681,-1.67151 z"
           fill="#006666"
           stroke-linecap="round"
           id="path18" />
      </g>
    </g>
  </g>
</svg>
