<?xml version="1.0" encoding="UTF-8" standalone="no"?>
<svg
   version="1.1"
   width="91.461868"
   height="69.758598"
   viewBox="0 0 91.461865 69.758598"
   id="svg24"
   xmlns="http://www.w3.org/2000/svg"
   xmlns:svg="http://www.w3.org/2000/svg">
  <defs
     id="defs24" />
  <g
     transform="translate(-276.51954,-145.1207)"
     id="g24">
    <g
       data-paper-data="{&quot;isPaintingLayer&quot;:true}"
       fill-rule="nonzero"
       stroke-linejoin="miter"
       stroke-miterlimit="10"
       stroke-dasharray="none"
       stroke-dashoffset="0"
       style="mix-blend-mode:normal"
       id="g23">
      <path
         d="m 350.31954,190.5793 c 0,18.3 -16.5,24.2 -36.9,24.2 -20.4,0 -36.9,-5.9 -36.9,-24.2 0,-8.6 2.4,-18.5 7.7,-26.5 l -4.3,-14.5 c -0.8,-2.7 2,-5.3 4.6,-4.2 l 14.3,6 c 4.2,-1.9 9,-3 14.6,-3 5.5,0 10.3,1.2 14.5,3.1 l 14.4,-6 c 2.6,-1.1 5.4,1.5 4.6,4.2 l -4.4,14.7 c 5.2,7.9 7.7,17.7 7.8,26.2 z"
         fill="#ff7319"
         stroke="none"
         stroke-width="1"
         stroke-linecap="butt"
         id="path1" />
      <path
         d="m 342.21954,202.1793 c 0,9.6 -12.9,12.7 -28.9,12.7 -16,0 -28.9,-3.1 -28.9,-12.7 0,-9.6 8.6,-22.1 28.9,-22.1 19.9,0 28.9,12.5 28.9,22.1 z"
         fill="#ffffff"
         stroke="none"
         stroke-width="1"
         stroke-linecap="butt"
         id="path2" />
      <path
         d="m 310.11954,184.4793 c 0,-1.3 1.4,-1.7 3.2,-1.7 1.8,0 3.2,0.4 3.2,1.7 0,1.3 -1,2.9 -3.2,2.9 -2.2,0 -3.2,-1.6 -3.2,-2.9 z"
         fill="#945600"
         stroke="#000000"
         stroke-width="1.5"
         stroke-linecap="butt"
         id="path3" />
      <path
         d="m 303.95169,173.4793 c 0,-1.71208 1.38792,-3.1 3.1,-3.1 1.71208,0 3.1,1.38792 3.1,3.1 0,1.71208 -1.38792,3.1 -3.1,3.1 -1.71208,0 -3.1,-1.38792 -3.1,-3.1 z"
         fill="#000000"
         stroke="none"
         stroke-width="1"
         stroke-linecap="butt"
         id="path4" />
      <path
         d="m 316.75169,173.4793 c 0,-1.71208 1.38792,-3.1 3.1,-3.1 1.71208,0 3.1,1.38792 3.1,3.1 0,1.71208 -1.38792,3.1 -3.1,3.1 -1.71208,0 -3.1,-1.38792 -3.1,-3.1 z"
         fill="#000000"
         stroke="none"
         stroke-width="1"
         stroke-linecap="butt"
         id="path5" />
      <path
         d="m 290.91954,156.8793 c -2.1,1.8 -3.8,3.5 -5.4,6.1 l -3.9,-13.5 c -0.3,-1.6 1.2,-3 2.8,-2.5 l 12.9,5.4 c -2.9,1.2 -4.6,2.8 -6.4,4.5 z"
         fill="#77500c"
         stroke="none"
         stroke-width="1"
         stroke-linecap="butt"
         id="path6" />
      <path
         d="m 329.71954,152.3793 12.9,-5.4 c 1.6,-0.5 3.1,0.9 2.8,2.5 l -3.8,13.5 c -1.5,-2.6 -3.3,-4.3 -5.3,-6.1 -2,-1.7 -3.7,-3.3 -6.6,-4.5 z"
         fill="#77500c"
         stroke="none"
         stroke-width="1"
         stroke-linecap="butt"
         id="path7" />
      <g
         id="g22">
        <path
           d="m 343.81263,193.40107 c -1.16583,-2.68748 -4.07969,-9.54415 -4.78893,-11.1572 -0.29668,-0.67473 -0.13607,-1.36548 0.40479,-1.60329 2.25889,-0.99322 17.50623,-7.74502 21.26397,-9.409 0.33132,-0.14672 0.76003,0.008 1.02474,0.12452 0.15674,0.069 0.2115,0.0233 0.27546,0.16879 0.56054,1.27484 3.71146,8.44103 5.04619,11.47661 0.37854,0.86091 0.1584,1.41763 -0.33029,1.63251 -2.18468,0.96059 -18.20645,8.00525 -21.80236,9.58634 -0.46366,0.20386 -0.79953,-0.14146 -1.09356,-0.81927 z"
           fill="#d0d0d0"
           stroke="#949494"
           stroke-width="1.5"
           stroke-linecap="butt"
           id="path8" />
        <path
           d="m 361.55779,171.85202 -7.71779,11.0984 -14.73221,-1.72305"
           fill="none"
           stroke="#949494"
           stroke-width="1.5"
           stroke-linecap="round"
           id="path9" />
        <path
           d="m 344.72379,193.83345 6.53789,-10.93077"
           fill="none"
           stroke="#949494"
           stroke-width="1.5"
           stroke-linecap="round"
           id="path10" />
        <path
           d="m 367.11994,183.92586 -11.66479,-3.11309"
           fill="none"
           stroke="#949494"
           stroke-width="1.5"
           stroke-linecap="round"
           id="path11" />
        <path
           d="m 355.67684,182.92297 c -0.10848,0.62997 -0.12566,1.4169 -0.56006,1.82881 -0.61956,0.58749 -2.87027,0.761 -3.76828,0.62605 -1.52765,-0.22958 -1.46699,-1.75776 -1.20378,-3.28622 0.0944,-0.54841 0.0328,-1.28127 0.38189,-1.66997 0.62381,-0.69464 1.88122,-0.82907 2.86075,-0.68187 1.06969,0.16075 2.33673,0.66996 2.64382,1.62811 0.13148,0.41021 -0.27544,1.09688 -0.35435,1.55508 z"
           fill="#f14141"
           stroke="none"
           stroke-width="1"
           stroke-linecap="butt"
           id="path12" />
        <path
           d="m 355.69745,182.92297 c -0.26321,1.52846 -1.71499,2.58141 -3.24265,2.35184 -0.49881,-0.075 -0.94403,-0.27739 -1.30832,-0.56926 -0.75138,-0.60201 -1.15843,-1.58455 -0.98116,-2.61393 0.26321,-1.52846 1.71499,-2.58141 3.24265,-2.35184 1.52765,0.22958 2.55269,1.65474 2.28947,3.18319 z"
           fill="#f14141"
           stroke="#8e2626"
           stroke-width="0.5"
           stroke-linecap="butt"
           id="path13" />
        <path
           d="m 355.19771,182.84787 c -0.21565,1.25231 -1.40515,2.11503 -2.6568,1.92693 -1.25166,-0.1881 -2.09149,-1.35578 -1.87584,-2.60809 0.21565,-1.25231 1.40515,-2.11503 2.6568,-1.92693 1.25166,0.1881 2.09149,1.35578 1.87584,2.60809 z"
           fill="#f14141"
           stroke="#8e2626"
           stroke-width="0.5"
           stroke-linecap="butt"
           id="path14" />
        <path
           d="m 352.16634,184.00314 c 0,0 -0.77145,-1.8515 -0.84616,-2.0308 -0.0116,-0.028 0.0141,-0.0385 0.0549,-0.0267 0.15491,0.045 1.14099,0.36424 1.40709,0.44151 0.0428,0.0124 0.0816,-0.006 0.10613,-0.0494 0.14496,-0.25818 0.63492,-1.19612 0.69878,-1.30986 0.013,-0.0232 0.0309,-0.0219 0.0418,0.004 0.0723,0.17352 0.84366,2.0248 0.84366,2.0248"
           fill="none"
           stroke="#8e2626"
           stroke-width="0.5"
           stroke-linecap="round"
           id="path15" />
        <path
           d="m 351.72536,182.50179 -0.13802,-0.33126 0.52475,0.15087"
           fill="#8e2626"
           stroke="#8e2626"
           stroke-width="0.5"
           stroke-linecap="round"
           id="path16" />
        <path
           d="m 353.35092,181.83291 0.26238,-0.47884 0.13802,0.33126"
           data-paper-data="{&quot;index&quot;:null}"
           fill="#8e2626"
           stroke="#8e2626"
           stroke-width="0.5"
           stroke-linecap="round"
           id="path17" />
        <path
           d="m 353.14774,182.76176 c -0.0349,-0.0838 -0.0439,-0.15968 -0.0201,-0.16959 0.0238,-0.01 0.0713,0.05 0.10624,0.13371 0.0349,0.0838 0.0439,0.15968 0.0201,0.16959 -0.0238,0.01 -0.0713,-0.05 -0.10624,-0.13371 z"
           fill="#8e2626"
           stroke="#8e2626"
           stroke-width="0.5"
           stroke-linecap="butt"
           id="path18" />
        <path
           d="m 352.76991,182.93556 c -0.0349,-0.0838 -0.0439,-0.15968 -0.0201,-0.16959 0.0238,-0.01 0.0713,0.05 0.10624,0.13371 0.0349,0.0838 0.0439,0.15968 0.0201,0.16959 -0.0238,0.01 -0.0713,-0.05 -0.10624,-0.13371 z"
           fill="#8e2626"
           stroke="#8e2626"
           stroke-width="0.5"
           stroke-linecap="butt"
           id="path19" />
        <g
           fill="#8e2626"
           stroke="#8e2626"
           stroke-width="0"
           stroke-linecap="butt"
           id="g21">
          <path
             d="m 353.37173,183.16833 c 0.008,0.009 -1.8e-4,0.0168 -1.8e-4,0.0168 l -0.0128,0.0125 c -0.0624,0.0592 -0.13896,0.0756 -0.19305,0.0318 -0.007,0.078 -0.0621,0.13916 -0.15311,0.0924 l -0.014,-0.0141 c 0,0 -0.008,-0.009 1.8e-4,-0.0168 0.009,-0.008 0.0168,1.8e-4 0.0168,1.8e-4 l 0.0111,0.0115 c 0.0812,0.0417 0.11966,-0.0253 0.11611,-0.0973 -0.0115,-0.0154 -0.0213,-0.0347 -0.0288,-0.0581 0,0 -0.004,-0.0113 0.008,-0.015 0.0113,-0.004 0.015,0.008 0.015,0.008 4.8e-4,0.001 9.8e-4,0.003 0.001,0.004 10e-4,-6.9e-4 0.002,-10e-4 0.004,-0.002 0.0113,-0.004 0.015,0.008 0.015,0.008 0.005,0.015 0.008,0.0304 0.009,0.0457 0.0455,0.0551 0.11772,0.0443 0.17623,-0.0154 l 0.0128,-0.0125 c 0,0 0.009,-0.008 0.0168,1.8e-4 z"
             id="path20" />
          <path
             d="m 353.07382,183.11672 c -0.006,-0.0251 0.041,-0.0492 0.0661,-0.0547 0.0251,-0.006 0.0732,-0.0229 0.0787,0.002 0.006,0.0251 -0.0231,0.0923 -0.0482,0.0978 -0.0251,0.006 -0.0911,-0.0202 -0.0966,-0.0453 z"
             id="path21" />
        </g>
      </g>
      <path
         d="m 324.42447,187.5543 c 0,3 -2.5,5.5 -5.5,5.5 -3,0 -5.5,-2.4 -5.5,-5.5 0,-0.2 0,-0.2 0,-0.2 0,-0.2 0,-0.3 0,-0.3 0,0 0,0.1 0,0.3 0,0 0,0 0,0.2 0,3 -2.5,5.5 -5.5,5.5 -3,0 -5.5,-2.4 -5.5,-5.5"
         fill="none"
         stroke="#000000"
         stroke-width="2.5"
         stroke-linecap="round"
         id="path22" />
    </g>
  </g>
</svg>
