<?xml version="1.0" encoding="UTF-8" standalone="no"?>
<svg
   version="1.1"
   width="74.895828"
   height="77.191177"
   viewBox="0 0 74.895826 77.191177"
   id="svg12"
   xmlns="http://www.w3.org/2000/svg"
   xmlns:svg="http://www.w3.org/2000/svg">
  <defs
     id="defs12" />
  <g
     transform="translate(-282.55209,-141.4044)"
     id="g12">
    <g
       data-paper-data="{&quot;isPaintingLayer&quot;:true}"
       fill-rule="nonzero"
       stroke-linejoin="miter"
       stroke-miterlimit="10"
       stroke-dasharray="none"
       stroke-dashoffset="0"
       style="mix-blend-mode:normal"
       id="g11">
      <g
         stroke="none"
         stroke-width="0"
         id="g10">
        <path
           d="m 316.55551,148.41881 c 2.94685,-0.005 5.71779,3.47085 8.48061,4.28226 7.51818,2.19824 14.67259,-1.8832 22.67251,5.23332 5.09205,4.52693 9.96756,15.76278 9.73102,26.76206 -0.22952,10.66369 -4.1951,17.8273 -10.97276,23.96405 -6.77821,6.13623 -16.13789,9.93508 -26.46758,9.93508 -10.32969,0 -19.68937,-3.79886 -26.46705,-9.93508 -6.77767,-6.13676 -10.76275,-13.35181 -10.97332,-23.96405 -0.21544,-10.84016 4.6866,-22.14418 9.73101,-26.99968 7.31844,-6.73328 14.30884,-2.00445 21.33656,-4.5199 1.75708,-0.629 1.7062,-4.58917 2.929,-4.75806 z"
           fill="#caac28"
           stroke-linecap="butt"
           id="path1" />
        <path
           d="m 320.7993,179.43388 c 7.86894,0 14.99844,1.9725 20.1614,5.15916 5.1635,3.18721 8.35936,7.588 8.35936,12.44457 0,4.85657 -3.19586,9.25737 -8.35936,12.44457 -5.16295,3.18665 -12.29246,5.15918 -20.1614,5.15918 -7.86894,0 -14.99898,-1.97252 -20.16194,-5.15918 -5.1635,-3.18721 -8.35936,-7.588 -8.35936,-12.44457 0,-4.85657 3.19586,-9.25738 8.35936,-12.44457 5.16295,-3.18665 12.293,-5.15916 20.16194,-5.15916 z"
           fill="#caac28"
           stroke-linecap="butt"
           id="path2" />
        <path
           d="m 320.31539,210.24597 c -8.50443,0.5727 -9.45387,-10.48614 -9.45387,-10.48614 0,0 4.86036,-0.15427 11.13246,-0.54346 6.271,-0.38702 7.77475,0 7.77475,0 0,0 -0.95107,10.45528 -9.45333,11.0296 z"
           fill="#caac28"
           stroke-linecap="round"
           id="path3" />
        <path
           d="m 336.21996,190.44563 v 0 0 0 c 0.51532,0 0.98896,0.33669 1.14161,0.85527 0.18676,0.63333 0.22788,1.28613 0.12504,1.94003 -0.38866,2.4337 -2.7011,4.0955 -5.157,3.71497 -2.46076,-0.38975 -4.14746,-2.68812 -3.76259,-5.12343 0.10123,-0.65066 0.70478,-1.09236 1.35813,-0.99059 0.64902,0.10176 1.09234,0.71019 0.99004,1.35813 -0.17917,1.14323 0.62034,2.22151 1.78414,2.40447 1.15134,0.18133 2.25561,-0.59652 2.43533,-1.73705 0.0482,-0.30366 0.0303,-0.60735 -0.0547,-0.90073 -0.18676,-0.62954 0.17647,-1.29047 0.80492,-1.47451 0.11368,-0.0314 0.22465,-0.0465 0.33506,-0.0465 z"
           fill="#caac28"
           stroke-linecap="butt"
           id="path4" />
        <path
           d="m 313.55342,190.44563 v 0 0 0 c 0.51532,0 0.98896,0.33669 1.14106,0.85527 0.18676,0.63333 0.22735,1.28613 0.12451,1.94003 -0.3865,2.4337 -2.7049,4.0955 -5.157,3.71497 -2.45968,-0.38975 -4.14638,-2.68812 -3.76259,-5.12343 0.1023,-0.65066 0.70588,-1.09236 1.35867,-0.99059 0.64902,0.10176 1.0918,0.71019 0.99059,1.35813 -0.17917,1.14323 0.62032,2.22151 1.78414,2.40447 1.1546,0.18133 2.25561,-0.59652 2.43587,-1.73705 0.0471,-0.30366 0.0287,-0.60735 -0.0557,-0.90073 -0.18622,-0.62954 0.17592,-1.29047 0.80545,-1.47451 0.11314,-0.0314 0.22519,-0.0465 0.33508,-0.0465 z"
           fill="#caac28"
           stroke-linecap="butt"
           id="path5" />
        <path
           d="m 316.55551,141.40441 c 2.94685,-0.005 5.71779,3.47085 8.48061,4.28226 7.51818,2.19824 14.67259,-1.8832 22.67251,5.23332 5.09205,4.52693 9.96756,15.76278 9.73102,26.76206 -0.22952,10.66369 -4.1951,17.8273 -10.97276,23.96405 -6.77821,6.13623 -16.13789,9.93508 -26.46758,9.93508 -10.32969,0 -19.68937,-3.79886 -26.46705,-9.93508 -6.77767,-6.13676 -10.76275,-13.35181 -10.97332,-23.96405 -0.21544,-10.84016 4.6866,-22.14418 9.73101,-26.99968 7.31844,-6.73328 14.30884,-2.00445 21.33656,-4.5199 1.75708,-0.629 1.7062,-4.58917 2.929,-4.75806 z"
           fill="#ffd833"
           stroke-linecap="butt"
           id="path6" />
        <path
           d="m 320.7993,172.41948 c 7.86894,0 14.99844,1.9725 20.1614,5.15916 5.1635,3.18721 8.35936,7.588 8.35936,12.44457 0,4.85657 -3.19586,9.25737 -8.35936,12.44457 -5.16295,3.18665 -12.29246,5.15918 -20.1614,5.15918 -7.86894,0 -14.99898,-1.97252 -20.16194,-5.15918 -5.1635,-3.18721 -8.35936,-7.588 -8.35936,-12.44457 0,-4.85657 3.19586,-9.25738 8.35936,-12.44457 5.16295,-3.18665 12.293,-5.15916 20.16194,-5.15916 z"
           fill="#ffd833"
           stroke-linecap="butt"
           id="path7" />
        <path
           d="m 320.31539,203.23157 c -8.50443,0.5727 -9.45387,-10.48614 -9.45387,-10.48614 0,0 4.86036,-0.15427 11.13246,-0.54346 6.271,-0.38702 7.77475,0 7.77475,0 0,0 -0.95107,10.45528 -9.45333,11.0296 z"
           fill="#ffd833"
           stroke-linecap="round"
           id="path8" />
        <path
           d="m 336.21996,183.43122 v 0 0 0 c 0.51532,0 0.98896,0.33669 1.14161,0.85527 0.18676,0.63333 0.22788,1.28613 0.12504,1.94003 -0.38866,2.4337 -2.7011,4.0955 -5.157,3.71497 -2.46076,-0.38975 -4.14746,-2.68812 -3.76259,-5.12343 0.10123,-0.65066 0.70478,-1.09236 1.35813,-0.99059 0.64902,0.10176 1.09234,0.71019 0.99004,1.35813 -0.17917,1.14323 0.62034,2.22151 1.78414,2.40447 1.15134,0.18133 2.25561,-0.59652 2.43533,-1.73705 0.0482,-0.30366 0.0303,-0.60735 -0.0547,-0.90073 -0.18676,-0.62954 0.17647,-1.29047 0.80492,-1.47451 0.11368,-0.0314 0.22465,-0.0465 0.33506,-0.0465 z"
           fill="#ffd833"
           stroke-linecap="butt"
           id="path9" />
        <path
           d="m 313.55342,183.43122 v 0 0 0 c 0.51532,0 0.98896,0.33669 1.14106,0.85527 0.18676,0.63333 0.22735,1.28613 0.12451,1.94003 -0.3865,2.4337 -2.7049,4.0955 -5.157,3.71497 -2.45968,-0.38975 -4.14638,-2.68812 -3.76259,-5.12343 0.1023,-0.65066 0.70588,-1.09236 1.35867,-0.99059 0.64902,0.10176 1.0918,0.71019 0.99059,1.35813 -0.17917,1.14323 0.62032,2.22151 1.78414,2.40447 1.1546,0.18133 2.25561,-0.59652 2.43587,-1.73705 0.0471,-0.30366 0.0287,-0.60735 -0.0557,-0.90073 -0.18622,-0.62954 0.17592,-1.29047 0.80545,-1.47451 0.11314,-0.0314 0.22519,-0.0465 0.33508,-0.0465 z"
           fill="#ffd833"
           stroke-linecap="butt"
           id="path10" />
      </g>
    </g>
  </g>
</svg>
