<?xml version="1.0" encoding="UTF-8" standalone="no"?>
<svg
   version="1.1"
   width="63.502121"
   height="56.580826"
   viewBox="0 0 63.502119 56.580825"
   id="svg4"
   xmlns="http://www.w3.org/2000/svg"
   xmlns:svg="http://www.w3.org/2000/svg">
  <defs
     id="defs4" />
  <g
     transform="translate(-288.24728,-151.70991)"
     id="g4">
    <g
       data-paper-data="{&quot;isPaintingLayer&quot;:true}"
       fill-rule="nonzero"
       stroke-miterlimit="10"
       stroke-dasharray="none"
       stroke-dashoffset="0"
       style="mix-blend-mode:normal"
       id="g3">
      <g
         stroke-width="0.77378"
         stroke-linecap="round"
         stroke-linejoin="round"
         id="g2">
        <path
           d="m 350.3304,189.45308 c 0.0589,0.21027 1.46324,5.34756 -2.08592,10.1053 -2.4041,3.22008 -6.59254,7.33513 -17.2956,8.2585 -5.24069,0.45094 -9.90549,-0.90091 -13.25897,-2.96689 0.0494,0.0305 0.0959,0.0624 0.14586,0.0924 l -0.048,-0.029 c -3.11572,-1.40677 -7.06645,-3.58318 -9.6898,-7.22625 0,0 -1.41181,2.94546 -7.7416,3.06828 -7.99886,0.1578 -11.22797,-4.27633 -11.64147,-7.61878 -0.41996,-3.3904 0.61577,-7.27665 7.3756,-8.42327 5.65916,-0.95738 8.73545,0.75208 9.58641,1.33287 l 0.066,0.0754 c 0.62371,-1.92915 1.66345,-2.81761 1.66345,-2.81761 l -0.0854,-0.0305 c -2.38209,-0.89387 -5.51634,-2.32169 -9.35167,-4.6029 -8.0288,-4.77671 -7.94942,-13.20301 -5.72861,-16.23283 2.29877,-3.13224 9.10848,-7.06748 18.72838,-1.71043 5.41346,3.01233 8.15311,7.65221 9.51495,11.12948 l 0.28765,-0.11385 c 0.37103,-0.21375 0.77557,-0.42448 1.20857,-0.62371 l 0.0564,-0.0989 c -2.10993,-4.95704 -5.29509,-15.14973 3.77344,-15.93627 8.62457,-0.74808 7.88243,9.64436 7.18682,14.063 l 0.0679,0.0105 c 1.11415,0.0784 2.24578,0.2417 3.37691,0.50735 -0.025,-0.052 -1.31138,-2.75165 0.34058,-6.68438 1.29447,-3.07829 7.09246,-10.45839 11.80224,-6.5371 4.96846,4.13796 2.27128,8.81832 -0.31463,11.68885 -2.2403,2.48549 -4.81718,3.50128 -5.98625,3.9497 l 0.033,0.021 c 0.28765,0.18077 0.57531,0.36904 0.85941,0.56982 7.90799,5.56526 7.2298,17.08734 7.2298,17.08734 l -0.0175,-0.0819 c -0.0299,-0.12882 -0.0514,-0.20375 -0.058,-0.22525 z m -9.23428,-18.05466 c 0.47792,0.25222 0.94531,0.5249 1.3998,0.81604 m -9.52102,-2.78914 c -0.10184,0.55433 -0.21821,1.10569 -0.34555,1.65402 m -9.33269,2.61178 c -0.47546,-0.89891 -0.90143,-1.82479 -1.29744,-2.76113 m -16.70081,18.77577 c -0.0505,-1.10815 0.0529,-2.22675 0.35659,-3.29546 m -6.54659,-1.98015 m -1.00927,16.17946"
           fill="#0b304d"
           stroke="#0b304d"
           id="path1" />
        <path
           d="m 350.3304,186.50352 c 0.0589,0.21027 1.46324,5.34756 -2.08592,10.1053 -2.4041,3.22008 -6.59254,7.33513 -17.2956,8.2585 -5.24069,0.45094 -9.90549,-0.90091 -13.25897,-2.96689 0.0494,0.0305 0.0959,0.0624 0.14586,0.0924 l -0.048,-0.029 c -3.11572,-1.40677 -7.06645,-3.58318 -9.6898,-7.22625 0,0 -1.41181,2.94546 -7.7416,3.06828 -7.99886,0.1578 -11.22797,-4.27633 -11.64147,-7.61878 -0.41996,-3.3904 0.61577,-7.27665 7.3756,-8.42327 5.65916,-0.95738 8.73545,0.75208 9.58641,1.33287 l 0.066,0.0754 c 0.62371,-1.92915 1.66345,-2.81761 1.66345,-2.81761 l -0.0854,-0.0305 c -2.38209,-0.89387 -5.51634,-2.32169 -9.35167,-4.6029 -8.0288,-4.77671 -7.94942,-13.20301 -5.72861,-16.23283 2.29877,-3.13224 9.10848,-7.06748 18.72838,-1.71043 5.41346,3.01233 8.15311,7.65221 9.51495,11.12948 l 0.28765,-0.11385 c 0.37103,-0.21375 0.77557,-0.42448 1.20857,-0.62371 l 0.0564,-0.0989 c -2.10993,-4.95704 -5.29509,-15.14973 3.77344,-15.93627 8.62457,-0.74808 7.88243,9.64436 7.18682,14.063 l 0.0679,0.0105 c 1.11415,0.0784 2.24578,0.2417 3.37691,0.50735 -0.025,-0.052 -1.31138,-2.75165 0.34058,-6.68438 1.29447,-3.07829 7.09246,-10.45839 11.80224,-6.5371 4.96846,4.13796 2.27128,8.81832 -0.31463,11.68885 -2.2403,2.48549 -4.81718,3.50128 -5.98625,3.9497 l 0.033,0.021 c 0.28765,0.18077 0.57531,0.36904 0.85941,0.56982 7.90799,5.56526 7.2298,17.08734 7.2298,17.08734 l -0.0175,-0.0819 c -0.0299,-0.12882 -0.0514,-0.20375 -0.058,-0.22525 z m -9.23428,-18.05466 c 0.47792,0.25222 0.94531,0.5249 1.3998,0.81604 m -9.52102,-2.78914 c -0.10184,0.55433 -0.21821,1.10569 -0.34555,1.65402 m -9.33269,2.6118 c -0.47546,-0.89891 -0.90143,-1.82479 -1.29744,-2.76113 m -16.70081,18.77574 c -0.0505,-1.10815 0.0529,-2.22675 0.35659,-3.29546 m -6.54659,-1.98014 m -1.00927,16.17945"
           fill="#1b75bb"
           stroke="#1b75bb"
           id="path2" />
      </g>
    </g>
  </g>
</svg>
