<?xml version="1.0" encoding="UTF-8" standalone="no"?>
<svg
   version="1.1"
   width="76.868301"
   height="72.77916"
   viewBox="0 0 76.868301 72.779159"
   id="svg24"
   xmlns="http://www.w3.org/2000/svg"
   xmlns:svg="http://www.w3.org/2000/svg">
  <defs
     id="defs24" />
  <g
     transform="translate(-281.56585,-143.61042)"
     id="g24">
    <g
       data-paper-data="{&quot;isPaintingLayer&quot;:true}"
       fill-rule="nonzero"
       stroke-linejoin="miter"
       stroke-miterlimit="10"
       stroke-dasharray="none"
       stroke-dashoffset="0"
       style="mix-blend-mode:normal"
       id="g23">
      <path
         d="m 358.43415,191.11532 c 0,19.10828 -17.22465,25.27425 -38.43415,25.27425 -21.20976,0 -38.43415,-6.09845 -38.43415,-25.27425 0,-9.01224 2.56678,-19.24397 8.03804,-27.64621 l -4.52563,-15.17821 c -0.87811,-2.91366 2.02642,-5.55629 4.72829,-4.40437 l 14.92783,6.2339 c 4.39053,-1.96504 9.45653,-3.11694 15.26561,-3.11694 5.67377,0 10.7398,1.1519 15.13056,3.18473 l 15.06266,-6.30169 c 2.70183,-1.08415 5.60625,1.55848 4.7284,4.40441 l -4.59334,15.38146 c 5.47157,8.2667 8.10587,18.49858 8.10587,27.44291 z"
         fill="#ff7319"
         stroke="none"
         stroke-width="1"
         stroke-linecap="butt"
         id="path2" />
      <path
         d="m 350.05817,203.17641 c 0,10.02852 -13.50916,13.21317 -30.1257,13.21317 -16.61661,0 -30.12591,-3.18465 -30.12591,-13.21317 0,-10.02852 8.98368,-23.03835 30.12591,-23.03835 20.66928,-0.0677 30.1257,13.00984 30.1257,23.03835 z"
         fill="#ffffff"
         stroke="none"
         stroke-width="1"
         stroke-linecap="butt"
         id="path3" />
      <path
         d="m 316.62259,184.67812 c 0,-1.35542 1.48601,-1.76208 3.37741,-1.76208 1.89113,0 3.3771,0.40666 3.3771,1.76208 0,1.35504 -1.01291,3.04885 -3.3771,3.04885 -2.3642,0 -3.37741,-1.6938 -3.37741,-3.04885 z"
         fill="#945600"
         stroke="#000000"
         stroke-width="1.5"
         stroke-linecap="butt"
         id="path4" />
      <path
         d="m 314.19091,194.77417 c 3.17467,0 5.74156,-2.50712 5.74156,-5.69178 0,-0.13543 0,-0.13543 0,-0.13543 0,-0.20333 0,-0.33876 0,-0.33876 0,0 0,0.13543 0,0.33876 0,0 0,0 0,0.13543 0,3.11675 2.56678,5.69178 5.7413,5.69178"
         fill="none"
         stroke="#000000"
         stroke-width="2.5"
         stroke-linecap="round"
         id="path5" />
      <path
         d="m 310.07056,173.091 c 0,-1.7963 1.4516,-3.25244 3.24223,-3.25244 1.79067,0 3.24224,1.45614 3.24224,3.25244 0,1.79633 -1.45157,3.25248 -3.24224,3.25248 -1.79063,0 -3.24223,-1.45618 -3.24223,-3.25248 z"
         fill="#000000"
         stroke="none"
         stroke-width="1"
         stroke-linecap="butt"
         id="path6" />
      <path
         d="m 323.3771,173.091 c 0,-1.7963 1.45183,-3.25244 3.24242,-3.25244 1.79059,0 3.24204,1.45614 3.24204,3.25244 0,1.79633 -1.45146,3.25248 -3.24204,3.25248 -1.79059,0 -3.24242,-1.45618 -3.24242,-3.25248 z"
         fill="#000000"
         stroke="none"
         stroke-width="1"
         stroke-linecap="butt"
         id="path7" />
      <path
         d="m 296.49364,155.88001 c -2.1615,1.96504 -3.98526,3.72678 -5.60636,6.43721 l -4.05282,-14.09406 c -0.27018,-1.69401 1.28339,-3.11696 2.97209,-2.64264 l 13.44178,5.62406 c -3.03962,1.21969 -4.79585,2.84593 -6.7547,4.67546 z"
         fill="#77500c"
         stroke="none"
         stroke-width="1"
         stroke-linecap="butt"
         id="path8" />
      <path
         d="m 337.02169,151.20458 13.44164,-5.62406 c 1.68893,-0.47431 3.24242,0.94865 2.97231,2.64263 l -4.05275,14.09406 c -1.6214,-2.71039 -3.44501,-4.47217 -5.60662,-6.43721 -1.95866,-1.8295 -3.71512,-3.45574 -6.75458,-4.67543 z"
         fill="#77500c"
         stroke="none"
         stroke-width="1"
         stroke-linecap="butt"
         id="path9" />
      <path
         d="m 317.3832,175.2804 c 0.40211,0.24127 0.16084,0.64338 0.16084,0.64338 l -0.22679,0.37695 c -0.50636,0.75752 -1.1937,1.82513 -2.14453,2.05836 -1.91572,0.46991 -4.35662,-0.0428 -5.73912,-1.41394 0,0 -0.33159,-0.33159 0,-0.66318 0.33159,-0.33159 0.66318,0 0.66318,0 1.179,1.19075 3.23043,1.4988 4.86046,1.16434 0.659,-0.13522 1.24386,-1.16065 1.57965,-1.66581 l 0.20293,-0.33924 c 0,0 0.24126,-0.40212 0.64338,-0.16084 z"
         fill="#cc5b14"
         stroke="none"
         stroke-width="0.5"
         stroke-linecap="butt"
         id="path10" />
      <path
         d="m 309.21441,178.39772 c -0.33159,0.33159 -0.66318,0 -0.66318,0 l -0.0718,-0.0846 c -0.40118,-0.26853 -0.80741,-0.47128 -1.23873,-0.68694 0,0 -0.41943,-0.20972 -0.20971,-0.62915 0.20971,-0.41943 0.62914,-0.20972 0.62914,-0.20972 0.46584,0.23292 0.90502,0.4568 1.33954,0.74544 l 0.21471,0.20183 c 0,0 0.33159,0.33159 0,0.66318 z"
         fill="#cc5b14"
         stroke="none"
         stroke-width="0.5"
         stroke-linecap="butt"
         id="path11" />
      <path
         d="m 319.64545,175.9943 c 0.28136,0.37515 -0.0938,0.65651 -0.0938,0.65651 l -0.11694,-0.0315 c -0.0836,0.28212 -0.12825,0.5796 -0.1252,0.87384 0,0 0,0.46894 -0.46894,0.46894 -0.46894,0 -0.46894,-0.46894 -0.46894,-0.46894 0.003,-0.38096 0.0595,-0.76437 0.16128,-1.13149 l 0.45601,-0.46118 c 0,0 0.37515,-0.28136 0.65651,0.0938 z"
         fill="#cc5b14"
         stroke="none"
         stroke-width="0.5"
         stroke-linecap="butt"
         id="path12" />
      <path
         d="m 323.74702,175.52653 0.20293,0.33924 c 0.33578,0.50516 0.92064,1.53059 1.57965,1.66581 1.63004,0.33447 3.68146,0.0264 4.86046,-1.16433 0,0 0.33159,-0.33159 0.66318,0 0.33159,0.33159 0,0.66318 0,0.66318 -1.38249,1.37112 -3.82341,1.88385 -5.73912,1.41394 -0.95084,-0.23323 -1.63816,-1.30084 -2.14453,-2.05836 l -0.22679,-0.37695 c 0,0 -0.24126,-0.40211 0.16084,-0.64338 0.40211,-0.24127 0.64338,0.16085 0.64338,0.16085 z"
         data-paper-data="{&quot;index&quot;:null}"
         fill="#cc5b14"
         stroke="none"
         stroke-width="0.5"
         stroke-linecap="butt"
         id="path13" />
      <path
         d="m 331.27243,177.81982 0.21471,-0.20183 c 0.43453,-0.28864 0.8737,-0.51251 1.33954,-0.74544 0,0 0.41943,-0.20972 0.62915,0.20971 0.20971,0.41943 -0.20971,0.62915 -0.20971,0.62915 -0.43133,0.21566 -0.83755,0.41841 -1.23873,0.68694 l -0.0718,0.0847 c 0,0 -0.33159,0.33159 -0.66318,0 -0.33159,-0.33159 0,-0.66318 0,-0.66318 z"
         data-paper-data="{&quot;index&quot;:null}"
         fill="#cc5b14"
         stroke="none"
         stroke-width="0.5"
         stroke-linecap="butt"
         id="path14" />
      <path
         d="m 321.49791,175.98579 0.45601,0.46118 c 0.10182,0.36712 0.15823,0.75052 0.16128,1.13149 0,0 -1e-5,0.46894 -0.46894,0.46894 -0.46894,0 -0.46894,-0.46894 -0.46894,-0.46894 0.003,-0.29423 -0.0416,-0.59172 -0.1252,-0.87384 l -0.11694,0.0315 c 0,0 -0.37515,-0.28136 -0.0938,-0.65651 0.28136,-0.37515 0.65651,-0.0938 0.65651,-0.0938 z"
         data-paper-data="{&quot;index&quot;:null}"
         fill="#cc5b14"
         stroke="none"
         stroke-width="0.5"
         stroke-linecap="butt"
         id="path15" />
      <path
         d="m 327.76329,153.26034 c 0,0.46894 -0.46894,0.46894 -0.46894,0.46894 -1.79047,0 -4.08227,0 -5.87273,0 -3.60922,0 -7.26302,-0.0858 -10.75723,0.913 0,0 -0.45089,0.12883 -0.57972,-0.32207 -0.12883,-0.45089 0.32207,-0.57973 0.32207,-0.57973 3.58067,-1.02257 7.3166,-0.94908 11.01488,-0.94908 1.79047,0 3.58093,0 5.3714,0 h 0.50133 c 0,0 0.46894,0 0.46894,0.46894 z"
         fill="#cc5b14"
         stroke="none"
         stroke-width="0.5"
         stroke-linecap="butt"
         id="path16" />
      <path
         d="m 328.12138,156.41156 c 0,0.46894 -0.46894,0.46894 -0.46894,0.46894 h -0.21485 c -2.10827,0 -4.18761,0.35657 -6.30245,0.35809 -3.83673,-0.004 -8.02948,-0.27839 -11.78698,0.56178 0,0 -0.45777,0.10173 -0.5595,-0.35605 -0.10173,-0.45777 0.35605,-0.5595 0.35605,-0.5595 3.83743,-0.84791 8.07359,-0.5807 11.99043,-0.58412 2.1144,0.002 4.19345,-0.35809 6.30245,-0.35809 h 0.21485 c 0,0 0.46894,0 0.46894,0.46894 z"
         fill="#cc5b14"
         stroke="none"
         stroke-width="0.5"
         stroke-linecap="butt"
         id="path17" />
      <path
         d="m 330.32137,159.92088 c 0,0.46894 -0.46894,0.46894 -0.46894,0.46894 -2.74083,0 -5.98299,0 -8.72382,0 -1.70554,0 -3.45758,-0.11401 -5.15911,0.0117 -1.10684,0.0818 -2.17046,0.48929 -3.27233,0.56008 -1.77466,0.11401 -3.57958,-0.15466 -5.34649,0.0692 0,0 -0.46531,0.0582 -0.52348,-0.40715 -0.0582,-0.46532 0.40715,-0.52348 0.40715,-0.52348 1.78633,-0.22058 3.60316,0.0344 5.39633,-0.0741 1.09799,-0.0664 2.16487,-0.47764 3.26944,-0.55988 1.72454,-0.12839 3.49984,-0.0143 5.22848,-0.0143 2.74083,0 5.48166,0 8.22249,0 h 0.50134 c 0,0 0.46894,1e-5 0.46894,0.46894 z"
         fill="#cc5b14"
         stroke="none"
         stroke-width="0.5"
         stroke-linecap="butt"
         id="path18" />
      <path
         d="m 313.83474,197.74213 c -0.33159,0.33159 -0.66317,0 -0.66317,0 l -0.0716,-0.0716 c -0.39756,-0.39829 -0.63855,-0.83478 -0.96907,-1.26052 -0.4515,-0.58156 -0.85567,-0.36737 -1.26733,-1.08154 0,0 -0.20972,-0.41943 0.20971,-0.62915 0.41943,-0.20971 0.62915,0.20972 0.62915,0.20972 0.15539,0.4561 0.7864,0.48691 1.1677,0.92379 0.32522,0.37263 0.52358,0.80581 0.89302,1.17452 l 0.0716,0.0716 c 0,0 0.33159,0.33159 0,0.66318 z"
         fill="#cccccc"
         stroke="none"
         stroke-width="0.5"
         stroke-linecap="butt"
         id="path19" />
      <path
         d="m 326.65665,197.59394 0.0716,-0.0716 c 0.36944,-0.36871 0.56779,-0.80189 0.89301,-1.17452 0.3813,-0.43688 1.01232,-0.46768 1.16771,-0.92378 0,0 0.20971,-0.41943 0.62914,-0.20972 0.41943,0.20971 0.20971,0.62914 0.20971,0.62914 -0.41165,0.71417 -0.81583,0.49998 -1.26733,1.08154 -0.33052,0.42574 -0.57151,0.86223 -0.96907,1.26052 l -0.0716,0.0716 c 0,0 -0.33158,0.33159 -0.66317,0 -0.33159,-0.33159 0,-0.66318 0,-0.66318 z"
         data-paper-data="{&quot;index&quot;:null}"
         fill="#cccccc"
         stroke="none"
         stroke-width="0.5"
         stroke-linecap="butt"
         id="path20" />
      <path
         d="m 317.51901,188.36344 c 0.4354,0.17416 0.26124,0.60956 0.26124,0.60956 l -0.15921,0.39365 c -0.57037,1.13569 -1.36412,2.08727 -2.71123,2.12131 0,0 -0.46894,-10e-6 -0.46894,-0.46894 0,-0.46894 0.46894,-0.46894 0.46894,-0.46894 0.94049,0.0388 1.49472,-0.84376 1.87237,-1.60287 l 0.12727,-0.32254 c 0,0 0.17416,-0.4354 0.60955,-0.26124 z"
         fill="#cccccc"
         stroke="none"
         stroke-width="0.5"
         stroke-linecap="butt"
         id="path21" />
      <path
         d="m 324.94633,190.6664 c -0.0771,0.46255 -0.53965,0.38546 -0.53965,0.38546 l -0.53734,-0.10315 c -1.07157,-0.4597 -1.2474,-1.08697 -2.00895,-1.81828 0,0 -0.33159,-0.33158 0,-0.66318 0.33159,-0.33159 0.66318,0 0.66318,0 0.6997,0.71988 0.74961,1.20602 1.71522,1.61942 l 0.32208,0.0401 c 0,0 0.46255,0.0771 0.38546,0.53965 z"
         fill="#cccccc"
         stroke="none"
         stroke-width="0.5"
         stroke-linecap="butt"
         id="path22" />
      <path
         d="m 286.81127,213.6449 c 0,0 -5.31093,-42.88228 8.26532,-43.20144 10.78484,-0.25354 10.48765,16.1694 5.45887,15.95618 -1.67556,-0.0711 -3.045,-1.62991 -3.045,-2.59094 0,-1.2053 0.39353,-5.9944 -2.62299,-5.9944 -3.3951,0 -1.90911,35.88856 -1.90911,35.88856 z"
         data-paper-data="{&quot;index&quot;:null}"
         fill="#99440f"
         stroke="#000000"
         stroke-width="0"
         stroke-linecap="round"
         id="path23" />
    </g>
  </g>
</svg>
