<?xml version="1.0" encoding="UTF-8" standalone="no"?>
<svg
   version="1.1"
   width="63.976295"
   height="64.258789"
   viewBox="0 0 63.976293 64.258788"
   id="svg4"
   xmlns="http://www.w3.org/2000/svg"
   xmlns:svg="http://www.w3.org/2000/svg">
  <defs
     id="defs4" />
  <g
     transform="translate(-288.05445,-145.85566)"
     id="g4">
    <g
       data-paper-data="{&quot;isPaintingLayer&quot;:true}"
       stroke-width="1"
       stroke-linecap="butt"
       stroke-linejoin="miter"
       stroke-miterlimit="10"
       stroke-dasharray="none"
       stroke-dashoffset="0"
       style="mix-blend-mode:normal"
       id="g3">
      <g
         fill-rule="evenodd"
         id="g2">
        <path
           d="m 323.64671,158.79102 8.19789,-8.31904 2.62333,11.53127 c 0,0 4.91873,2.47099 8.03393,8.23663 3.1152,5.68332 2.62333,10.37815 2.62333,10.37815 0,0 5.49254,0.74134 6.31233,7.90716 1.47562,13.6728 -14.59224,22.73309 -35.33284,20.83871 -15.65801,-1.31786 -27.62693,-11.44896 -26.97109,-23.88622 0.65583,-11.20181 5.98451,-15.1554 5.98451,-15.1554 l -1.80353,-18.94424 13.28058,9.30734 c 0,0 4.01692,-2.05911 8.60773,-2.30625 4.59082,-0.0823 8.44387,0.41187 8.44387,0.41187 z"
           fill="#6b3c00"
           stroke="#6b3c00"
           id="path1" />
        <path
           d="m 323.0932,155.1762 8.19789,-8.31904 2.62333,11.53127 c 0,0 4.91873,2.47099 8.03393,8.23663 3.1152,5.68332 2.62333,10.37815 2.62333,10.37815 0,0 5.49254,0.74134 6.31233,7.90716 1.47562,13.6728 -14.59224,22.73309 -35.33284,20.83871 -15.65801,-1.31786 -27.62693,-11.44896 -26.97109,-23.88622 0.65583,-11.20181 5.98451,-15.1554 5.98451,-15.1554 l -1.80353,-18.94424 13.28058,9.30734 c 0,0 4.01692,-2.05911 8.60773,-2.30625 4.59082,-0.0823 8.44387,0.41187 8.44387,0.41187 z"
           fill="#d97900"
           stroke="#d97900"
           id="path2" />
      </g>
    </g>
  </g>
</svg>
